<svg width="24" height="24" viewBox="0 0 24 24" fill="none" xmlns="http://www.w3.org/2000/svg" style="display: block"><path fill-rule="evenodd" clip-rule="evenodd" d="M6.75 7a3.5 3.5 0 117 0 3.5 3.5 0 01-7 0zm3.5-5a5 5 0 100 10 5 5 0 000-10zm-.065 12.75c.631 0 1.24.08 1.815.227V13.44a8.768 8.768 0 00-1.815-.189c-4.506 0-8.25 3.422-8.25 7.75 0 .414.336.75.75.75h15a.75.75 0 00.75-.75c0-.253-.012-.503-.037-.75H3.484c.399-3.062 3.205-5.5 6.701-5.5zm7.816-4a.75.75 0 01.75.75v2.25H21a.75.75 0 010 1.5h-2.248v2.25a.75.75 0 01-1.5 0v-2.25H15a.75.75 0 010-1.5h2.252V11.5a.75.75 0 01.75-.75z" fill="currentColor"/></svg>