<svg width="24" height="24" viewBox="0 0 24 24" fill="none" xmlns="http://www.w3.org/2000/svg" style="display: block"><path d="M11.324 21.886c-.808-.276-.982-.651-1.313-2.85-.386-2.556-.47-4.138-.247-4.639.296-.664 1.1-1.041 2.226-1.046 1.115-.004 1.927.377 2.225 1.046.224.5.14 2.083-.246 4.639-.262 1.785-.406 2.237-.768 2.54-.497.42-1.202.537-1.87.31h-.007zM7.87 19.264c-2.792-1.311-4.582-3.53-5.232-6.482-.163-.761-.19-2.579-.036-3.278.406-1.876 1.183-3.343 2.476-4.64C6.939 2.99 9.334 2 11.999 2c2.639 0 5.025.972 6.84 2.79C20.224 6.16 21 7.613 21.398 9.525c.136.637.136 2.372.01 3.088-.416 2.264-1.736 4.325-3.66 5.71-.687.495-2.368 1.36-2.64 1.36-.098 0-.107-.099-.062-.496.081-.639.162-.771.542-.923.605-.242 1.635-.942 2.268-1.548a8.157 8.157 0 002.268-3.812c.235-.889.208-2.864-.054-3.778-.822-2.907-3.307-5.167-6.353-5.77-.885-.173-2.494-.173-3.388 0-3.082.603-5.63 2.975-6.407 5.96-.208.81-.208 2.786 0 3.596.515 1.976 1.852 3.787 3.605 4.865.344.216.76.44.931.51.38.155.461.284.533.922.046.388.037.5-.063.5-.063 0-.524-.19-1.012-.413l-.045-.032zm.036-3.51c-.94-.715-1.771-1.985-2.114-3.23-.208-.753-.208-2.183.009-2.933.569-2.026 2.132-3.596 4.3-4.333.742-.25 2.386-.306 3.3-.114 3.144.669 5.376 3.675 4.942 6.657-.172 1.201-.605 2.188-1.374 3.105-.38.463-1.3 1.24-1.464 1.24-.027 0-.054-.293-.054-.65v-.652l.47-.535c1.771-2.025 1.645-4.855-.289-6.71-.75-.724-1.617-1.148-2.738-1.344-.723-.128-.877-.128-1.636-.009-1.152.18-2.044.606-2.837 1.355-1.943 1.837-2.07 4.68-.298 6.708l.466.535v.655c0 .363-.03.656-.067.656-.036 0-.298-.173-.578-.388l-.038-.012zm3.136-3.521c-.805-.357-1.238-1.031-1.247-1.91 0-.788.46-1.477 1.256-1.88.506-.253 1.4-.253 1.906.002.551.274 1.003.804 1.175 1.358.524 1.7-1.364 3.191-3.072 2.43h-.018z" fill="currentColor"/></svg>