<svg width="24" height="24" viewBox="0 0 24 24" fill="none" xmlns="http://www.w3.org/2000/svg" style="display: block"><g fill="currentColor"><path d="M16.181 2.496c-.046.986-.478 1.929-1.065 2.65-.612.713-1.538 1.283-2.503 1.392a.496.496 0 01-.557-.524c.054-.969.549-1.933 1.094-2.558.595-.679 1.543-1.236 2.419-1.442.314-.075.625.16.612.482zM19.208 9.288c-.654.583-1.543 1.677-1.526 3.316.02 2.113 1.324 3.245 2.12 3.735.361.223.508.675.349 1.065-.222.545-.595 1.32-1.157 2.1-.839 1.233-1.719 2.44-3.115 2.461-.666.017-1.115-.171-1.583-.367-.487-.204-.995-.417-1.788-.417-.843 0-1.373.22-1.884.432-.442.183-.87.36-1.474.386-1.333.046-2.352-1.316-3.22-2.54-1.74-2.495-3.093-7.027-1.278-10.112.88-1.514 2.486-2.49 4.2-2.516.756-.014 1.48.272 2.115.522.486.192.919.363 1.273.363.31 0 .73-.164 1.22-.355.774-.302 1.722-.672 2.687-.572.541.017 1.912.176 3.052 1.203a.87.87 0 01.009 1.296z"/></g></svg>