<svg width="24" height="24" viewBox="0 0 24 24" fill="none" xmlns="http://www.w3.org/2000/svg" style="display: block"><g fill="currentColor"><path d="M18.92 10.91C15.506 6.375 9.102 5.445 4.571 8.859c-.42.305-.842.735-1.176 1.096C5.255 7.248 8.435 5.5 12.007 5.5c3.602 0 6.782 1.776 8.612 4.454l-1.67.985-.03-.028z"/><path d="M6.097 11.521c1.249-1.845 3.427-3.038 5.91-3.038 2.469 0 4.662 1.235 5.94 3.024l-1.612.986c-2.425-3.094-6.884-3.65-9.977-1.194-.101.07-.16.125-.261.222z"/><path d="M23 10.148l-10.993 6.548L1 10.148v1.776L12.007 18.5 23 11.924v-1.776z"/><path d="M12.007 11.521c-1.35 0-2.541.652-3.253 1.596a3.401 3.401 0 011.96-.61c1.192 0 2.252.582 2.963 1.567l1.54-.915c-.668-1.013-1.86-1.638-3.21-1.638z"/></g></svg>