<svg width="24" height="24" viewBox="0 0 24 24" fill="none" xmlns="http://www.w3.org/2000/svg" style="display: block"><path fill-rule="evenodd" clip-rule="evenodd" d="M7.25 1.999a2.75 2.75 0 00-2.75 2.75V20.24a1.75 1.75 0 002.597 1.532l4.782-2.644a.25.25 0 01.242 0l4.783 2.644a1.75 1.75 0 002.597-1.532V4.75a2.75 2.75 0 00-2.75-2.75H7.25zM6 4.749c0-.69.56-1.25 1.25-1.25h9.5c.691 0 1.25.56 1.25 1.25V20.24a.25.25 0 01-.37.22l-4.783-2.644a1.75 1.75 0 00-1.693 0L6.37 20.46A.25.25 0 016 20.241V4.75zM12.75 6.5a.75.75 0 00-1.5 0v2.25H9a.75.75 0 000 1.5h2.25v2.25a.75.75 0 001.5 0v-2.25H15a.75.75 0 000-1.5h-2.25V6.5z" fill="currentColor"/></svg>