<svg width="24" height="24" viewBox="0 0 24 24" fill="none" xmlns="http://www.w3.org/2000/svg" style="display: block"><path fill-rule="evenodd" clip-rule="evenodd" d="M18.01 5.99A8.5 8.5 0 105.99 18.01v.001l12.02-12.02V5.99zM4.929 4.93c3.905-3.906 10.236-3.906 14.141 0 3.905 3.904 3.905 10.236 0 14.14-3.905 3.906-10.236 3.906-14.141 0-3.905-3.904-3.905-10.236 0-14.14zM17.75 16.5a.75.75 0 000-1.5h-4a.75.75 0 000 1.5h4zm-9-9.5a.75.75 0 01.75.75V9h1.25a.75.75 0 010 1.5H9.5v1.25a.75.75 0 01-1.5 0V10.5H6.75a.75.75 0 110-1.5H8V7.75A.75.75 0 018.75 7z" fill="currentColor"/></svg>