<svg width="24" height="24" viewBox="0 0 24 24" fill="none" xmlns="http://www.w3.org/2000/svg" style="display: block"><path fill-rule="evenodd" clip-rule="evenodd" d="M12 2a.75.75 0 01.75.75v1.5a.75.75 0 01-1.5 0v-1.5A.75.75 0 0112 2zM4.93 4.929a.75.75 0 011.06 0l1.06 1.06A.75.75 0 115.99 7.05L4.929 5.99a.75.75 0 010-1.061zm14.141 1.06a.75.75 0 10-1.06-1.06l-1.061 1.06a.75.75 0 001.06 1.061l1.061-1.06zM22.001 12a.75.75 0 01-.75.75h-1.5a.75.75 0 010-1.5h1.5A.75.75 0 0122 12zm-9.251 7.75a.75.75 0 00-1.5 0v1.5a.75.75 0 001.5 0v-1.5zm4.2-2.8a.75.75 0 011.06 0l1.061 1.06a.75.75 0 01-1.06 1.061l-1.061-1.06a.75.75 0 010-1.061zm-9.9 1.06a.75.75 0 00-1.06-1.06l-1.061 1.06a.75.75 0 001.06 1.061l1.061-1.06zM5 12a.75.75 0 01-.75.75h-1.5a.75.75 0 010-1.5h1.5A.75.75 0 015 12zm7-4.5a4.5 4.5 0 100 9v-9zM6 12a6 6 0 1112.001 0 6 6 0 01-12 0z" fill="currentColor"/></svg>