<svg width="24" height="24" viewBox="0 0 24 24" fill="none" xmlns="http://www.w3.org/2000/svg" style="display: block"><path fill-rule="evenodd" clip-rule="evenodd" d="M22 7.75A2.75 2.75 0 0019.25 5H4.75A2.75 2.75 0 002 7.75v6.985a2.75 2.75 0 002.75 2.75h6.997l4.424 3.362a.75.75 0 001.204-.597v-2.765h1.875a2.75 2.75 0 002.75-2.75V7.75zM19.25 6.5c.69 0 1.25.56 1.25 1.25v6.985c0 .69-.56 1.25-1.25 1.25h-2.625a.75.75 0 00-.75.75v2.003l-3.421-2.6a.75.75 0 00-.454-.153H4.75c-.69 0-1.25-.56-1.25-1.25V7.75c0-.69.56-1.25 1.25-1.25h14.5zm-14 3.25A.75.75 0 016 9h12a.75.75 0 010 1.5H6a.75.75 0 01-.75-.75zm4.75 2.5a.75.75 0 000 1.5h8a.75.75 0 000-1.5h-8z" fill="currentColor"/></svg>