<svg width="24" height="24" viewBox="0 0 24 24" fill="none" xmlns="http://www.w3.org/2000/svg" style="display: block"><path fill-rule="evenodd" clip-rule="evenodd" d="M2.003 7.748a2.75 2.75 0 012.75-2.75H19.25A2.75 2.75 0 0122 7.748v6.985a2.75 2.75 0 01-2.75 2.75h-6.996l-4.423 3.363a.75.75 0 01-1.204-.598v-2.765H4.753a2.75 2.75 0 01-2.75-2.75V7.748zm2.75-1.25c-.69 0-1.25.56-1.25 1.25v6.985c0 .69.56 1.25 1.25 1.25h2.624a.75.75 0 01.75.75v2.003l3.42-2.6a.75.75 0 01.454-.153h7.249c.69 0 1.25-.56 1.25-1.25V7.748c0-.69-.56-1.25-1.25-1.25H4.753zM5.25 9.75A.75.75 0 016 9h12a.75.75 0 010 1.5H6a.75.75 0 01-.75-.75zm.75 2.5a.75.75 0 000 1.5h8a.75.75 0 000-1.5H6z" fill="currentColor"/></svg>