<svg width="24" height="24" viewBox="0 0 24 24" fill="none" xmlns="http://www.w3.org/2000/svg" style="display: block"><path d="M15.448 11.085l-.004 4.403c-.009.896-.537 1.472-1.32 1.484-.76.013-1.334-.548-1.367-1.372l-.01-2.275c-.006-.598-.284-.928-.759-.936-.475-.008-.762.32-.773.921l-.006 1.981c-.015.918-.571 1.518-1.38 1.508-.784-.01-1.318-.582-1.335-1.473l.003-2.568c-.001-.858-.231-1.23-.772-1.237-.557-.007-.814.39-.815 1.28l.006 5.726c.005.606-.21 1.05-.72 1.317-.898.47-1.944-.179-1.96-1.234l-.013-4.33c-.004-.252-.05-.579-.206-.734-.174-.173-.53-.31-.737-.242-.238.072-.43.384-.586.631-.07.124-.015.335-.035.505-.087.732-.652 1.266-1.333 1.268-.67.002-1.306-.552-1.325-1.272L0 10.032c.018-.71.655-1.263 1.329-1.272.667-.007 1.249.544 1.333 1.268.017.144-.002.295.017.439.07.494.35.752.807.738.442-.015.731-.291.742-.799l.011-2.79c.019-1.018.899-1.646 1.81-1.315.54.197.843.602.861 1.21l.007 1.092c.032.579.34.886.838.874.473-.017.726-.295.734-.873l.01-3.156c.031-1.195 1.143-1.823 2.103-1.21.473.302.618.768.614 1.318l-.004 3.89c-.002.435.12.773.572.877.553.127.951-.204.962-.837l.011-2.936c.023-.899.636-1.457 1.482-1.384.724.057 1.198.597 1.207 1.44l.004 4.48-.002-.001zm4.27 1.556l-.002 2.493c-.013.852-.512 1.413-1.278 1.46a1.312 1.312 0 01-1.41-1.313l-.008-5.278c.019-.841.615-1.324 1.413-1.292.772.032 1.272.589 1.282 1.435l.003 2.493v.002zm1.573.692l.003-.658c.04-.743.56-1.282 1.253-1.326a1.324 1.324 0 011.417 1.225c.046.507.05 1.02.001 1.534-.071.768-.67 1.244-1.425 1.201-.713-.04-1.21-.563-1.245-1.316-.011-.218-.002-.439-.002-.658l-.002-.002z" fill="currentColor"/></svg>