<svg width="24" height="24" viewBox="0 0 24 24" fill="none" xmlns="http://www.w3.org/2000/svg" style="display: block"><path fill-rule="evenodd" clip-rule="evenodd" d="M7.202 9.615a5.251 5.251 0 0110.03 1.703l.053.646.646.042a2.75 2.75 0 01-.181 5.494H7.25a3.75 3.75 0 01-.612-7.45l.4-.066.164-.37zM12 5a6.75 6.75 0 00-5.997 3.65A5.252 5.252 0 007.25 19h10.5a4.25 4.25 0 00.902-8.404A6.752 6.752 0 0012 5zm-.75 10.125a.75.75 0 001.5 0v-3.39l.46.478a.75.75 0 001.08-1.04l-1.75-1.818a.75.75 0 00-1.08 0l-1.75 1.818a.75.75 0 001.08 1.04l.46-.477v3.389z" fill="currentColor"/></svg>