<svg width="16" height="16" viewBox="0 0 16 16" fill="none" xmlns="http://www.w3.org/2000/svg" style="display: block"><path fill-rule="evenodd" clip-rule="evenodd" d="M5 3.5A2.5 2.5 0 017.5 1h5A2.5 2.5 0 0115 3.5v5a2.5 2.5 0 01-2.5 2.5H11v-1h1.5A1.5 1.5 0 0014 8.5v-5A1.5 1.5 0 0012.5 2h-5A1.5 1.5 0 006 3.5V5H5V3.5zM3.5 5A2.5 2.5 0 001 7.5v5A2.5 2.5 0 003.5 15h5a2.5 2.5 0 002.5-2.5v-5A2.5 2.5 0 008.5 5h-5zM2 7.5A1.5 1.5 0 013.5 6h5A1.5 1.5 0 0110 7.5v5A1.5 1.5 0 018.5 14h-5A1.5 1.5 0 012 12.5v-5z" fill="currentColor"/></svg>