<svg width="24" height="24" viewBox="0 0 24 24" fill="none" xmlns="http://www.w3.org/2000/svg" style="display: block"><path fill-rule="evenodd" clip-rule="evenodd" d="M7 5.75A2.75 2.75 0 019.75 3h8.5A2.75 2.75 0 0121 5.75v8.5A2.75 2.75 0 0118.25 17H17v-1.5h1.25c.69 0 1.25-.56 1.25-1.25v-8.5c0-.69-.56-1.25-1.25-1.25h-8.5c-.69 0-1.25.56-1.25 1.25V7h5.75A2.75 2.75 0 0117 9.75v8.5A2.75 2.75 0 0114.25 21h-8.5A2.75 2.75 0 013 18.25v-8.5A2.75 2.75 0 015.75 7H7V5.75zm-2.5 4c0-.69.56-1.25 1.25-1.25h8.5c.69 0 1.25.56 1.25 1.25v8.5c0 .69-.56 1.25-1.25 1.25h-8.5c-.69 0-1.25-.56-1.25-1.25v-8.5z" fill="currentColor"/></svg>