<svg width="16" height="16" viewBox="0 0 16 16" fill="none" xmlns="http://www.w3.org/2000/svg" style="display: block"><path fill-rule="evenodd" clip-rule="evenodd" d="M2.62 10.284a2.113 2.113 0 012.957 0c.817.804.817 2.109 0 2.914a2.114 2.114 0 01-2.957 0 2.039 2.039 0 010-2.914zm3.285-1.025a3.134 3.134 0 00-3.997.323 3.021 3.021 0 000 4.317 3.132 3.132 0 004.382 0 3.02 3.02 0 00.327-3.938l.211-.208-.712-.702-.211.208zm8.948-7.412L9.678 6.946l-.712-.702 5.174-5.099a.509.509 0 01.713 0 .49.49 0 010 .702zM1.908 6.418a3.134 3.134 0 004 .321l8.233 8.116a.509.509 0 00.712 0 .491.491 0 000-.702L6.619 6.037A3.02 3.02 0 006.29 2.1a3.132 3.132 0 00-4.382 0 3.021 3.021 0 000 4.317zm3.67-3.615c.812.8.816 2.096.012 2.901l-.01.01-.01.01a2.114 2.114 0 01-2.95-.007 2.039 2.039 0 010-2.914 2.114 2.114 0 012.958 0z" fill="currentColor"/></svg>