<svg width="24" height="24" viewBox="0 0 24 24" fill="none" xmlns="http://www.w3.org/2000/svg" style="display: block"><path fill-rule="evenodd" clip-rule="evenodd" d="M9.086 14.804l-.004-.004-.004-.004a2.25 2.25 0 10.008.008zm1.534-.482a3.751 3.751 0 01-5.78 4.72 3.75 3.75 0 014.72-5.78l.376-.377 1.06 1.061-.376.377zm3.205-3.204l-1.06-1.061 6.217-6.217a.75.75 0 011.06 1.06l-6.217 6.218zM9.082 9.204l-.004.004a2.25 2.25 0 11.008-.008l-.004.004zm-4.242 1.06a3.751 3.751 0 004.72.478l9.422 9.422a.75.75 0 001.06-1.06L10.62 9.68a3.751 3.751 0 10-5.78.583z" fill="currentColor"/></svg>