<svg width="24" height="24" viewBox="0 0 24 24" fill="none" xmlns="http://www.w3.org/2000/svg" style="display: block"><g fill="currentColor"><path d="M18.728 4.608h5.137v2.997h-5.137V4.608zM18.728 8.783h5.137v2.998h-5.137V8.783zM23.866 12.956h-5.138v2.998h5.137v-2.998zM.105 17.131h5.138v2.998H.105V17.13zM11.45 17.131H6.312v2.998h5.138V17.13zM12.521 17.131h5.137v2.998h-5.137V17.13zM23.866 17.131h-5.138v2.998h5.137V17.13zM12.521 12.956h5.137v2.998h-5.137v-2.998zM11.45 12.956H6.312v2.998h5.138v-2.998zM6.312 8.783h5.138v2.998H6.312V8.783z"/></g></svg>