<svg width="24" height="24" viewBox="0 0 24 24" fill="none" xmlns="http://www.w3.org/2000/svg" style="display: block"><path fill-rule="evenodd" clip-rule="evenodd" d="M8.434 2a2.75 2.75 0 00-2.75 2.75v1.472H3.752a.75.75 0 000 1.5h.96V21.25c0 .414.336.75.75.75h13.076a.75.75 0 00.75-.75V7.722h.96a.75.75 0 000-1.5h-1.932V4.75A2.75 2.75 0 0015.566 2H8.434zM6.212 20.5V7.722H17.788V20.5H6.212zm.972-14.278h9.632V4.75c0-.69-.56-1.25-1.25-1.25H8.434c-.69 0-1.25.56-1.25 1.25v1.472zM10.738 11a.75.75 0 00-1.5 0v7a.75.75 0 001.5 0v-7zm4.024 0a.75.75 0 00-1.5 0v7a.75.75 0 001.5 0v-7z" fill="currentColor"/></svg>