<svg width="16" height="16" viewBox="0 0 16 16" fill="none" xmlns="http://www.w3.org/2000/svg" style="display: block"><path fill-rule="evenodd" clip-rule="evenodd" d="M6.084 1a2.5 2.5 0 00-2.5 2.5v.466H2.2a.5.5 0 000 1h.701v9.531a.5.5 0 00.5.5h9.187a.5.5 0 00.5-.5v-9.53h.701a.5.5 0 000-1H12.405V3.5a2.5 2.5 0 00-2.5-2.5h-3.82zM3.901 13.997v-9.03h8.187v9.03H3.9zm.683-10.03h6.82V3.5a1.5 1.5 0 00-1.5-1.5h-3.82a1.5 1.5 0 00-1.5 1.5v.466zm2.497 3.33a.5.5 0 00-1 0v4.917a.5.5 0 101 0V7.296zm2.827 0a.5.5 0 00-1 0v4.917a.5.5 0 101 0V7.296z" fill="currentColor"/></svg>