<svg width="24" height="24" viewBox="0 0 24 24" fill="none" xmlns="http://www.w3.org/2000/svg" style="display: block"><path fill-rule="evenodd" clip-rule="evenodd" d="M17.744 3.43a1.25 1.25 0 00-1.767 0L4.075 15.332a1.25 1.25 0 00-.342.639l-.706 3.53a1.25 1.25 0 001.47 1.472l3.532-.706a1.25 1.25 0 00.639-.342l10.04-10.04a1.132 1.132 0 00.015-.016l1.847-1.846a1.25 1.25 0 000-1.768L17.744 3.43zm.441 4.856l1.147-1.147-2.471-2.471-1.147 1.146 2.471 2.472zm-3.532-1.411L5.19 16.339l-.618 3.09 3.09-.618 9.464-9.465-2.472-2.471z" fill="currentColor"/></svg>