<svg width="16" height="16" viewBox="0 0 16 16" fill="none" xmlns="http://www.w3.org/2000/svg" style="display: block"><path fill-rule="evenodd" clip-rule="evenodd" d="M8.73 4.396a1 1 0 00-1.463 0l-1.414 1.52L4.4 4.579c-.686-.632-1.787-.064-1.669.862l.477 3.735a1 1 0 00.992.873h7.596a1 1 0 00.992-.873l.477-3.735c.118-.926-.984-1.494-1.67-.862l-1.451 1.337-1.414-1.52zM8 5.076l1.414 1.52a1 1 0 001.41.055l1.45-1.337-.476 3.735H4.2l-.477-3.735 1.451 1.337a1 1 0 001.41-.054l1.414-1.52zM3.76 11.002a.5.5 0 000 1h8.476a.5.5 0 100-1H3.761z" fill="currentColor"/></svg>