<svg width="24" height="24" viewBox="0 0 24 24" fill="none" xmlns="http://www.w3.org/2000/svg" style="display: block"><path fill-rule="evenodd" clip-rule="evenodd" d="M12.913 6.397a1.25 1.25 0 00-1.83 0L8.779 8.874l-2.681-2.47c-.858-.79-2.235-.08-2.087 1.077l.83 6.501a1.25 1.25 0 001.24 1.092h11.834c.63 0 1.16-.468 1.24-1.092l.83-6.5c.148-1.158-1.229-1.869-2.087-1.078l-2.68 2.47-2.305-2.477zm-3.205 3.68l2.29-2.462 2.29 2.463a1.25 1.25 0 001.763.067l2.36-2.174-.716 5.603H6.301L5.586 7.97l2.36 2.174a1.25 1.25 0 001.762-.067zM5.64 16.502a.75.75 0 000 1.5h12.714a.75.75 0 000-1.5H5.641z" fill="currentColor"/></svg>