<svg width="24" height="24" viewBox="0 0 24 24" fill="none" xmlns="http://www.w3.org/2000/svg" style="display: block"><path fill-rule="evenodd" clip-rule="evenodd" d="M13.325 9.607a.75.75 0 101.06 1.06l6.075-6.074-.06 3.162a.75.75 0 001.5.03l.096-5.024a.75.75 0 00-.765-.764l-5.023.096a.75.75 0 00.03 1.5l3.162-.06-6.075 6.074zm-3 5.121a.75.75 0 00-1.06-1.06L3.52 19.41l-.023-3.1a.75.75 0 00-1.5.012l.036 4.891a.75.75 0 00.744.745l4.892.035a.75.75 0 10.01-1.5l-3.099-.022 5.744-5.744z" fill="currentColor"/></svg>