<svg width="24" height="24" viewBox="0 0 24 24" fill="none" xmlns="http://www.w3.org/2000/svg" style="display: block"><path fill-rule="evenodd" clip-rule="evenodd" d="M12 5.25c-2.06 0-4.075.922-5.742 2.057-1.676 1.142-3.082 2.555-3.942 3.665a1.628 1.628 0 00.053 2.06c.94 1.099 2.43 2.508 4.119 3.65C8.156 17.81 10.126 18.75 12 18.75c1.875 0 3.844-.94 5.513-2.068 1.688-1.142 3.179-2.551 4.118-3.65a1.628 1.628 0 00.053-2.06c-.86-1.11-2.265-2.523-3.942-3.665C16.076 6.172 14.062 5.25 12 5.25zm-8.498 6.64c.77-.993 2.062-2.295 3.6-3.343C8.65 7.493 10.368 6.75 12 6.75c1.634 0 3.35.743 4.898 1.797 1.538 1.048 2.83 2.35 3.6 3.343a.128.128 0 01-.007.168c-.858 1.003-2.25 2.32-3.818 3.381-1.589 1.074-3.25 1.811-4.673 1.811-1.422 0-3.084-.737-4.672-1.81-1.569-1.061-2.96-2.379-3.819-3.382a.128.128 0 01-.007-.168zm7.249.11a1.25 1.25 0 112.5 0 1.25 1.25 0 01-2.5 0zM12 9.25a2.75 2.75 0 100 5.5 2.75 2.75 0 000-5.5z" fill="currentColor"/></svg>