<svg width="24" height="24" viewBox="0 0 24 24" fill="none" xmlns="http://www.w3.org/2000/svg" style="display: block"><path fill-rule="evenodd" clip-rule="evenodd" d="M21.53 3.53a.75.75 0 10-1.06-1.06l-18 18a.75.75 0 101.06 1.06l18-18zM12 5.25c1.017 0 2.022.224 2.98.588l-1.184 1.184A6.462 6.462 0 0012 6.75c-1.633 0-3.35.743-4.897 1.797-1.539 1.048-2.832 2.35-3.601 3.343a.128.128 0 00.007.168c.647.755 1.595 1.689 2.694 2.557l-1.067 1.067a21.282 21.282 0 01-2.767-2.65 1.628 1.628 0 01-.053-2.06c.86-1.11 2.266-2.523 3.942-3.665C7.925 6.172 9.94 5.25 12 5.25zm0 12c-.555 0-1.146-.112-1.755-.313l-1.166 1.166c.963.397 1.955.647 2.921.647 1.875 0 3.844-.94 5.513-2.068 1.688-1.142 3.179-2.551 4.118-3.65a1.628 1.628 0 00.053-2.06c-.642-.828-1.587-1.825-2.722-2.752l-1.067 1.066c1.096.88 2.007 1.835 2.603 2.604a.128.128 0 01-.007.168c-.858 1.003-2.25 2.32-3.818 3.381-1.589 1.074-3.25 1.811-4.673 1.811z" fill="currentColor"/></svg>