<svg width="24" height="24" viewBox="0 0 24 24" fill="none" xmlns="http://www.w3.org/2000/svg" style="display: block"><g fill="currentColor"><path d="M13.138 11.902C11.12 6.545 8.497 4.95 3.75 4.768a.972.972 0 00-1 .982v12.303a1 1 0 001 1h17.467c-2.693 0-5.925-1.43-8.08-7.151z"/><path d="M3.75 4.768l-.028.75.028-.75zm9.388 7.134l-.702.264.702-.264zm-9.36-7.883c2.446.093 4.459.554 6.13 1.769C11.576 7 12.805 8.89 13.84 11.638l-1.403.528c-.983-2.61-2.074-4.195-3.41-5.165-1.33-.967-3.003-1.395-5.304-1.483l.057-1.5zm10.061 7.618c1.042 2.767 2.317 4.423 3.59 5.389a6.12 6.12 0 003.788 1.277v1.5a7.62 7.62 0 01-4.695-1.582c-1.555-1.18-2.973-3.1-4.086-6.055l1.403-.529zM3.5 5.75v12.303H2V5.75h1.5zm.25 12.553h17.467v1.5H3.75v-1.5zm-.25-.25c0 .138.112.25.25.25v1.5A1.75 1.75 0 012 18.053h1.5zm.222-12.535c-.108-.004-.222.085-.222.232H2c0-.958.782-1.77 1.779-1.731l-.057 1.499z"/><path fill-rule="evenodd" clip-rule="evenodd" d="M2 4.75A.75.75 0 012.75 4c2.744 0 4.978.36 6.814 1.551 1.843 1.195 3.17 3.151 4.275 6.086 1.042 2.767 2.317 4.423 3.59 5.389a6.12 6.12 0 003.788 1.277.75.75 0 010 1.5 7.62 7.62 0 01-4.695-1.582c-1.555-1.18-2.973-3.1-4.086-6.055-1.05-2.786-2.223-4.406-3.688-5.356C7.275 5.855 5.392 5.5 2.75 5.5A.75.75 0 012 4.75z"/></g></svg>