<svg width="24" height="24" viewBox="0 0 24 24" fill="none" xmlns="http://www.w3.org/2000/svg" style="display: block"><g fill="currentColor"><path d="M10.846 12c2.017-5.356 4.64-6.952 9.387-7.133a.972.972 0 011 .981v12.304a1 1 0 01-1 1H2.767c2.693 0 5.924-1.43 8.079-7.152z"/><path d="M20.233 4.867l.029.749-.029-.75zM10.846 12l.702.264-.702-.264zm9.359-7.883c-2.446.094-4.458.554-6.13 1.769-1.668 1.212-2.896 3.103-3.931 5.85l1.404.528c.982-2.609 2.074-4.194 3.409-5.165 1.331-.967 3.004-1.395 5.305-1.483l-.057-1.499zm-10.061 7.619c-1.042 2.766-2.316 4.422-3.59 5.388a6.12 6.12 0 01-3.787 1.278v1.5a7.62 7.62 0 004.695-1.583c1.555-1.18 2.973-3.1 4.086-6.055l-1.404-.528zm10.34-5.888v12.304h1.5V5.848h-1.5zm-.25 12.554H2.766v1.5h17.466v-1.5zm.25-.25a.25.25 0 01-.25.25v1.5a1.75 1.75 0 001.75-1.75h-1.5zm-.222-12.536c.107-.004.221.086.221.232h1.5c0-.958-.782-1.77-1.778-1.73l.057 1.498z"/><path fill-rule="evenodd" clip-rule="evenodd" d="M21.983 4.848a.75.75 0 00-.75-.75c-2.744 0-4.977.36-6.813 1.551-1.844 1.196-3.17 3.151-4.276 6.087-1.042 2.766-2.316 4.422-3.59 5.388a6.12 6.12 0 01-3.787 1.278.75.75 0 000 1.5 7.62 7.62 0 004.695-1.583c1.555-1.18 2.973-3.1 4.086-6.055 1.049-2.786 2.223-4.406 3.688-5.356 1.473-.955 3.355-1.31 5.997-1.31a.75.75 0 00.75-.75z"/></g></svg>