<svg width="24" height="24" viewBox="0 0 24 24" fill="none" xmlns="http://www.w3.org/2000/svg" style="display: block"><path fill-rule="evenodd" clip-rule="evenodd" d="M2 8.791C2 5.547 4.581 3 7.839 3c1.553 0 3.046.604 4.163 1.599A6.315 6.315 0 0116.166 3c3.257 0 5.838 2.547 5.838 5.791 0 1.98-.904 3.716-2.336 5.452-1.416 1.716-3.425 3.52-5.772 5.63l-.04.034-.01.01h-.001l-.727.656a1.668 1.668 0 01-2.232.004l-.726-.65h-.001l-.037-.033-.039-.036c-2.34-2.107-4.343-3.91-5.754-5.623C2.902 12.5 2 10.767 2 8.79zM7.839 4.5C5.397 4.5 3.5 6.389 3.5 8.791c0 1.48.663 2.883 1.987 4.49 1.332 1.618 3.252 3.349 5.639 5.498m0 0l.035.031.001.002.724.648a.168.168 0 00.228 0l.727-.657.001-.001.012-.01c2.394-2.152 4.32-3.884 5.657-5.504 1.328-1.61 1.993-3.014 1.993-4.497 0-2.402-1.896-4.291-4.338-4.291a4.812 4.812 0 00-3.595 1.655l-.569.661-.569-.661A4.812 4.812 0 007.84 4.5" fill="currentColor"/></svg>