<svg width="24" height="24" viewBox="0 0 24 24" fill="none" xmlns="http://www.w3.org/2000/svg" style="display: block"><path fill-rule="evenodd" clip-rule="evenodd" d="M3 7.75A.75.75 0 013.75 7H5.2V3.75a.75.75 0 011.5 0V7h1.45a.75.75 0 010 1.5h-4.4A.75.75 0 013 7.75zm2.2 12.5a.75.75 0 101.5 0V10H5.2v10.25zm9.75-4a.75.75 0 01-.75.75h-1.45v3.25a.75.75 0 11-1.5 0V17H9.802a.75.75 0 110-1.5h4.4a.75.75 0 01.75.75zm-3.7-3V14h1.5V3.75a.75.75 0 00-1.5 0v9.5zm4.6-3.25a.75.75 0 100 1.5h4.4a.75.75 0 100-1.5H18.8V3.75a.75.75 0 00-1.5 0V10h-1.45zm2.2 11a.75.75 0 01-.75-.75V13h1.5v7.25a.75.75 0 01-.75.75z" fill="currentColor"/></svg>