<svg width="24" height="24" viewBox="0 0 24 24" fill="none" xmlns="http://www.w3.org/2000/svg" style="display: block"><path fill-rule="evenodd" clip-rule="evenodd" d="M3.929 19.01a.75.75 0 101.06 1.061l5.11-5.108-.061 3.185a.75.75 0 001.5.029l.096-5.046a.75.75 0 00-.764-.764l-5.047.096a.75.75 0 00.03 1.5l3.185-.061-5.109 5.109zM20.071 4.99a.75.75 0 10-1.06-1.061L13.9 9.038l.062-3.186a.75.75 0 00-1.5-.029l-.097 5.046a.75.75 0 00.765.765l5.046-.097a.75.75 0 00-.029-1.5l-3.186.061 5.11-5.108z" fill="currentColor"/></svg>