<svg width="24" height="24" viewBox="0 0 24 24" fill="none" xmlns="http://www.w3.org/2000/svg" style="display: block"><path fill-rule="evenodd" clip-rule="evenodd" d="M4.75 5.5c-.69 0-1.25.56-1.25 1.25V9.5H2V6.75A2.75 2.75 0 014.75 4h4.176c1.033 0 1.98.58 2.449 1.5l.09.176a.25.25 0 00.223.137h7.563A2.75 2.75 0 0122 8.563v8.688a2.75 2.75 0 01-2.75 2.75H4.75A2.75 2.75 0 012 17.251V14.5h1.5v2.751c0 .69.56 1.25 1.25 1.25h14.5c.691 0 1.25-.56 1.25-1.25V8.563c0-.69-.559-1.25-1.25-1.25h-7.562a1.75 1.75 0 01-1.56-.955l-.09-.176A1.25 1.25 0 008.927 5.5H4.75zm-2 5.75a.75.75 0 000 1.5h6.795l-1.598 1.743a.75.75 0 001.106 1.014l2.75-3a.75.75 0 000-1.014l-2.75-3a.75.75 0 00-1.106 1.014l1.598 1.743H2.75z" fill="currentColor"/></svg>