<svg width="24" height="24" viewBox="0 0 24 24" fill="none" xmlns="http://www.w3.org/2000/svg" style="display: block"><path fill-rule="evenodd" clip-rule="evenodd" d="M4.75 5.5c-.69 0-1.25.56-1.25 1.25v10.501c0 .69.56 1.25 1.25 1.25h14.5c.69 0 1.25-.56 1.25-1.25V8.563c0-.69-.56-1.25-1.25-1.25h-7.562a1.75 1.75 0 01-1.56-.955l-.09-.176A1.25 1.25 0 008.926 5.5H4.75zM2 6.75A2.75 2.75 0 014.75 4h4.175c1.034 0 1.98.58 2.45 1.5l.09.176a.25.25 0 00.223.137h7.563A2.75 2.75 0 0122 8.563v8.688a2.75 2.75 0 01-2.75 2.75H4.75A2.75 2.75 0 012 17.251V6.75z" fill="currentColor"/></svg>