<svg width="24" height="24" viewBox="0 0 24 24" fill="none" xmlns="http://www.w3.org/2000/svg" style="display: block"><path fill-rule="evenodd" clip-rule="evenodd" d="M6 0a2 2 0 00-2 2v20a2 2 0 002 2h12a2 2 0 002-2V2a2 2 0 00-2-2H6zm2.375 9.07a1.25 1.25 0 011.9-1.067l5.006 3.045a1.25 1.25 0 01-.034 2.157l-5.007 2.828a1.25 1.25 0 01-1.865-1.089V9.071z" fill="currentColor"/><path d="M6 3h2M11 3h2M16 3h2" stroke="currentColor" stroke-width="1.5" stroke-linecap="round" stroke-linejoin="round"/></svg>