<svg width="24" height="24" viewBox="0 0 24 24" fill="none" xmlns="http://www.w3.org/2000/svg" style="display: block"><path fill-rule="evenodd" clip-rule="evenodd" d="M6 3.5h12A2.5 2.5 0 0120.5 6v12a2.5 2.5 0 01-2.5 2.5H6A2.5 2.5 0 013.5 18V6A2.5 2.5 0 016 3.5zM2 6a4 4 0 014-4h12a4 4 0 014 4v12a4 4 0 01-4 4H6a4 4 0 01-4-4V6zm15.253 5.876a.75.75 0 01-.75-.75V7.75a.25.25 0 00-.25-.25h-3.377a.75.75 0 010-1.5h3.377c.966 0 1.75.784 1.75 1.75v3.376a.75.75 0 01-.75.75zm-10.503.25a.75.75 0 01.75.75v3.377c0 .138.112.25.25.25h3.376a.75.75 0 010 1.5H7.75A1.75 1.75 0 016 16.253v-3.377a.75.75 0 01.75-.75z" fill="currentColor"/></svg>