<svg width="24" height="24" viewBox="0 0 24 24" fill="none" xmlns="http://www.w3.org/2000/svg" style="display: block"><path fill-rule="evenodd" clip-rule="evenodd" d="M3.753 3.003a.75.75 0 00-.75.75v5.32a.75.75 0 001.5 0v-4.57h4.57a.75.75 0 100-1.5h-5.32zM20.25 21a.75.75 0 00.75-.75v-5.32a.75.75 0 10-1.5 0v4.57h-4.57a.75.75 0 000 1.5h5.32zm0-17.997a.75.75 0 01.75.75v5.32a.75.75 0 01-1.5 0v-4.57h-4.57a.75.75 0 010-1.5h5.32zM3.003 20.25c0 .414.336.75.75.75h5.32a.75.75 0 000-1.5h-4.57v-4.57a.75.75 0 10-1.5 0v5.32z" fill="currentColor"/></svg>