<svg width="24" height="24" viewBox="0 0 24 24" fill="none" xmlns="http://www.w3.org/2000/svg" style="display: block"><path fill-rule="evenodd" clip-rule="evenodd" d="M17.866 9.195c.1.208.188.422.266.642.24.68.845 1.1 1.48 1.17a1 1 0 010 1.987c-.635.07-1.24.49-1.48 1.17-.078.219-.167.433-.266.641-.312.65-.181 1.376.22 1.875a1 1 0 01-1.406 1.405 1.772 1.772 0 00-1.875-.22c-.208.1-.422.19-.642.267-.68.24-1.1.845-1.17 1.48a1 1 0 01-1.987 0 1.773 1.773 0 00-1.17-1.48 6.45 6.45 0 01-.641-.266 1.773 1.773 0 00-1.875.22 1 1 0 01-1.405-1.406c.4-.5.531-1.224.22-1.875a6.435 6.435 0 01-.267-.642c-.24-.68-.844-1.1-1.48-1.17a1 1 0 010-1.987c.636-.07 1.24-.49 1.48-1.17.078-.219.167-.433.266-.641.312-.65.181-1.376-.22-1.875A1 1 0 017.32 5.915c.5.4 1.224.531 1.875.22.208-.1.422-.19.642-.267.68-.24 1.1-.844 1.17-1.48a1 1 0 011.987 0c.07.636.49 1.24 1.17 1.48.219.078.433.167.641.266.65.312 1.376.181 1.875-.22a1 1 0 011.405 1.406 1.773 1.773 0 00-.22 1.875zM4.745 15.741a2.5 2.5 0 003.514 3.514.272.272 0 01.288-.037c.256.123.52.233.79.328a.272.272 0 01.178.23 2.5 2.5 0 004.97 0 .273.273 0 01.177-.23c.27-.095.535-.205.791-.328a.272.272 0 01.288.037 2.5 2.5 0 003.514-3.514.272.272 0 01-.037-.288c.123-.256.233-.52.328-.79a.273.273 0 01.23-.178 2.5 2.5 0 000-4.97.272.272 0 01-.23-.177 7.95 7.95 0 00-.328-.791.272.272 0 01.037-.288 2.5 2.5 0 00-3.514-3.514.272.272 0 01-.288.037 7.952 7.952 0 00-.79-.328.273.273 0 01-.178-.23 2.5 2.5 0 00-4.97 0 .273.273 0 01-.177.23 7.95 7.95 0 00-.791.328.272.272 0 01-.288-.037 2.5 2.5 0 00-3.514 3.514.272.272 0 01.037.288c-.123.256-.233.52-.328.79a.273.273 0 01-.23.178 2.5 2.5 0 000 4.97.273.273 0 01.23.177c.095.27.205.535.328.791a.272.272 0 01-.037.288zM9.25 12a2.75 2.75 0 115.5 0 2.75 2.75 0 01-5.5 0zM12 7.75a4.25 4.25 0 100 8.5 4.25 4.25 0 000-8.5z" fill="currentColor"/></svg>