<svg width="24" height="24" viewBox="0 0 24 24" fill="none" xmlns="http://www.w3.org/2000/svg" style="display: block"><g fill="currentColor"><path d="M20.25 11.25v1.5a1.375 1.375 0 102.75 0v-1.5a1.375 1.375 0 10-2.75 0zM3.75 11.29v-.04a1.375 1.375 0 10-2.75.04v1.5a1.375 1.375 0 002.75 0v-1.5zM15.5 15.75v1.5a1.375 1.375 0 102.75 0v-1.5a1.375 1.375 0 10-2.75 0zm0-9v4.906a1.375 1.375 0 002.75 0V6.75a1.375 1.375 0 10-2.75 0zM8.5 8.25a1.375 1.375 0 11-2.75 0v-1.5a1.375 1.375 0 012.75 0v1.5zM13.375 3.875a1.375 1.375 0 01-2.75 0v-1.5a1.375 1.375 0 112.75 0v1.5zm0 16.25a1.375 1.375 0 10-2.75 0v1.5a1.375 1.375 0 102.75 0v-1.5zM8.5 12.375a1.375 1.375 0 10-2.75 0v4.875a1.375 1.375 0 102.75 0v-4.875zM10.625 8v8a1.375 1.375 0 102.75 0V8a1.375 1.375 0 10-2.75 0z"/></g></svg>