<svg width="24" height="24" viewBox="0 0 24 24" fill="none" xmlns="http://www.w3.org/2000/svg" style="display: block"><path fill-rule="evenodd" clip-rule="evenodd" d="M4.5 9.5v-5h5v5h-5zM3 4a1 1 0 011-1h6a1 1 0 011 1v6a1 1 0 01-1 1H4a1 1 0 01-1-1V4zm11.5 5.5v-5h5v5h-5zM13 4a1 1 0 011-1h6a1 1 0 011 1v6a1 1 0 01-1 1h-6a1 1 0 01-1-1V4zm1.5 10.5v5h5v-5h-5zM14 13a1 1 0 00-1 1v6a1 1 0 001 1h6a1 1 0 001-1v-6a1 1 0 00-1-1h-6zm-9.5 6.5v-5h5v5h-5zM3 14a1 1 0 011-1h6a1 1 0 011 1v6a1 1 0 01-1 1H4a1 1 0 01-1-1v-6z" fill="currentColor"/></svg>