<svg width="24" height="24" viewBox="0 0 24 24" fill="none" xmlns="http://www.w3.org/2000/svg" style="display: block"><path fill-rule="evenodd" clip-rule="evenodd" d="M8 4.75a1.25 1.25 0 112.5 0v10.127c0 .245.12.475.32.615A2.746 2.746 0 0112 17.75H6.5c0-.934.465-1.76 1.18-2.258a.75.75 0 00.32-.615V4.75zM9.25 2A2.75 2.75 0 006.5 4.75v9.76a4.25 4.25 0 105.5 0V4.75A2.75 2.75 0 009.25 2zM17 3.25a.75.75 0 01.75.75v1.25H19a.75.75 0 010 1.5h-1.25V8a.75.75 0 01-1.5 0V6.75H15a.75.75 0 010-1.5h1.25V4a.75.75 0 01.75-.75zm2.75 8.5a.75.75 0 01-.75.75h-4a.75.75 0 010-1.5h4a.75.75 0 01.75.75z" fill="currentColor"/></svg>