<svg width="24" height="24" viewBox="0 0 24 24" fill="none" xmlns="http://www.w3.org/2000/svg" style="display: block"><path fill-rule="evenodd" clip-rule="evenodd" d="M12 3.5a8.5 8.5 0 100 17 8.5 8.5 0 000-17zM2 12C2 6.477 6.477 2 12 2s10 4.477 10 10-4.477 10-10 10S2 17.523 2 12zm10-3.75A1.75 1.75 0 0010.25 10c0 .253-.182.5-.435.5H9.29c-.289 0-.54-.211-.54-.5a3.25 3.25 0 113.5 3.24V14a.75.75 0 01-1.5 0v-1c0-.69.56-1.25 1.25-1.25v1.043-1.043a1.75 1.75 0 100-3.5zm-1.25 8.25a.75.75 0 111.5 0 .75.75 0 01-1.5 0z" fill="currentColor"/></svg>