<svg width="24" height="24" viewBox="0 0 24 24" fill="none" xmlns="http://www.w3.org/2000/svg" style="display: block"><path fill-rule="evenodd" clip-rule="evenodd" d="M12 2a.75.75 0 01.537.227l9.25 9.5A.75.75 0 0121.25 13h-.792v8.25a.75.75 0 01-.75.75H14.57a.75.75 0 01-.75-.75V17H10.18v4.25a.75.75 0 01-.75.75H4.293a.75.75 0 01-.75-.75V13H2.75a.75.75 0 01-.537-1.273l9.25-9.5A.75.75 0 0112 2zm-7.501 9.529a.75.75 0 01.543.721v8.25H8.68v-4.25a.75.75 0 01.75-.75h5.138a.75.75 0 01.75.75v4.25h3.64v-8.25a.75.75 0 01.542-.721L12 3.825 4.499 11.53z" fill="currentColor"/></svg>