<svg width="24" height="24" viewBox="0 0 24 24" fill="none" xmlns="http://www.w3.org/2000/svg" style="display: block"><path fill-rule="evenodd" clip-rule="evenodd" d="M6.75 2A4.75 4.75 0 002 6.75v10.497a4.75 4.75 0 004.75 4.75h10.497a4.75 4.75 0 004.75-4.75V6.75A4.75 4.75 0 0017.247 2H6.75zM3.5 6.75A3.25 3.25 0 016.75 3.5h10.497a3.25 3.25 0 013.25 3.25v.5H3.5v-.5zm0 2v8.497a3.25 3.25 0 003.25 3.25h1.416V8.75H3.5zm6.166 11.747h7.581a3.25 3.25 0 003.25-3.25V8.75H9.666v11.747z" fill="currentColor"/></svg>