<svg width="24" height="24" viewBox="0 0 24 24" fill="none" xmlns="http://www.w3.org/2000/svg" style="display: block"><path fill-rule="evenodd" clip-rule="evenodd" d="M22.224 0C23.204 0 24 .775 24 1.73v20.538c0 .956-.797 1.732-1.776 1.732H1.77C.794 24 0 23.224 0 22.268V1.73C0 .775.794 0 1.77 0h20.454zM6.862 8.728H3.284V20.25h3.578V8.728zm9.1-.286c-1.74 0-2.906.955-3.382 1.86h-.05V8.729H9.105V20.25h3.57v-5.699c0-1.503.284-2.96 2.144-2.96 1.835 0 1.858 1.72 1.858 3.056v5.603h3.574v-6.32c0-3.102-.669-5.488-4.288-5.488zM5.074 3C3.926 3 3 3.93 3 5.077a2.074 2.074 0 104.146 0A2.075 2.075 0 005.074 3z" fill="currentColor"/></svg>