<svg width="16" height="16" viewBox="0 0 16 16" fill="none" xmlns="http://www.w3.org/2000/svg" style="display: block"><path fill-rule="evenodd" clip-rule="evenodd" d="M8 1.333a4.5 4.5 0 00-4.5 4.5v.5a1.5 1.5 0 00-1.5 1.5v5.334a1.5 1.5 0 001.5 1.5h9a1.5 1.5 0 001.5-1.5V7.833a1.5 1.5 0 00-1.5-1.5v-.5a4.5 4.5 0 00-4.5-4.5zm3.5 5v-.5a3.5 3.5 0 10-7 0v.5h7zm-8 1a.5.5 0 00-.5.5v5.334a.5.5 0 00.5.5h9a.5.5 0 00.5-.5V7.833a.5.5 0 00-.5-.5h-9zm5 3.31a.965.965 0 00.5-.84c0-.535-.448-.97-1-.97s-1 .435-1 .97c0 .36.201.673.5.84v1.19a.5.5 0 101 0v-1.19z" fill="currentColor"/></svg>