<svg width="24" height="24" viewBox="0 0 24 24" fill="none" xmlns="http://www.w3.org/2000/svg" style="display: block"><path fill-rule="evenodd" clip-rule="evenodd" d="M12 2a6.75 6.75 0 00-6.75 6.75v.796a2.75 2.75 0 00-2.249 2.704v7A2.75 2.75 0 005.751 22H18.25a2.75 2.75 0 002.75-2.75v-7a2.75 2.75 0 00-2.249-2.704V8.75A6.75 6.75 0 0012 2zm5.25 7.5v-.75a5.249 5.249 0 10-10.5 0v.75h10.5zM5.751 11c-.69 0-1.25.56-1.25 1.25v7c0 .69.56 1.25 1.25 1.25H18.25c.69 0 1.25-.56 1.25-1.25v-7c0-.69-.56-1.25-1.25-1.25H5.75zm6.999 4.965c.448-.252.75-.722.75-1.26 0-.804-.672-1.455-1.5-1.455-.829 0-1.5.651-1.5 1.455 0 .538.302 1.008.75 1.26v1.785a.75.75 0 001.5 0v-1.785z" fill="currentColor"/></svg>