<svg width="24" height="24" viewBox="0 0 24 24" fill="none" xmlns="http://www.w3.org/2000/svg" style="display: block"><path fill-rule="evenodd" clip-rule="evenodd" d="M3.5 6.75c0-.69.56-1.25 1.25-1.25h14.5c.69 0 1.25.56 1.25 1.25v10.5c0 .69-.56 1.25-1.25 1.25H4.75c-.69 0-1.25-.56-1.25-1.25V6.75zM4.75 4A2.75 2.75 0 002 6.75v10.5A2.75 2.75 0 004.75 20h14.5A2.75 2.75 0 0022 17.25V6.75A2.75 2.75 0 0019.25 4H4.75zm1.716 3.162a.75.75 0 10-.932 1.176l5.38 4.259a1.75 1.75 0 002.172 0l5.38-4.259a.75.75 0 10-.931-1.176l-5.38 4.259a.25.25 0 01-.31 0l-5.38-4.259z" fill="currentColor"/></svg>