<svg width="24" height="24" viewBox="0 0 24 24" fill="none" xmlns="http://www.w3.org/2000/svg" style="display: block"><path fill-rule="evenodd" clip-rule="evenodd" d="M8.75 4.75a2.75 2.75 0 015.5 0v7.5a2.75 2.75 0 11-5.5 0v-7.5zM11.5 3.5c-.69 0-1.25.56-1.25 1.25v7.5a1.25 1.25 0 102.5 0v-7.5c0-.69-.56-1.25-1.25-1.25zm-.75 14.459v3.291a.75.75 0 001.5 0v-3.291a6.751 6.751 0 006-6.709c0-.282-.237-.5-.519-.5h-.504a.49.49 0 00-.477.5 5.25 5.25 0 11-10.5 0 .49.49 0 00-.477-.5h-.504a.509.509 0 00-.519.5 6.751 6.751 0 006 6.709z" fill="currentColor"/></svg>