<svg width="24" height="24" viewBox="0 0 24 24" fill="none" xmlns="http://www.w3.org/2000/svg" style="display: block"><path fill-rule="evenodd" clip-rule="evenodd" d="M11.775 2.557a.747.747 0 01.65-.553.747.747 0 01.46.102l3.45 1.984c.917.465 2.125 1.4 2.654 2.749a3.72 3.72 0 01.128 2.356c-.227.852-.75 1.716-1.612 2.584a.75.75 0 01-1.064-1.058c.728-.732 1.084-1.376 1.227-1.913.141-.528.09-1-.076-1.422-.346-.884-1.211-1.595-1.95-1.966a.735.735 0 01-.037-.02L13.25 4.046V17.25c0 .05-.005.1-.014.147a4.25 4.25 0 11-1.486-2.888V2.763a.746.746 0 01.025-.206zM9 15a2.75 2.75 0 100 5.5A2.75 2.75 0 009 15z" fill="currentColor"/></svg>