<svg width="24" height="24" viewBox="0 0 24 24" fill="none" xmlns="http://www.w3.org/2000/svg" style="display: block"><path fill-rule="evenodd" clip-rule="evenodd" d="M7.91 5.254A5.687 5.687 0 0112 3.5c1.529 0 3 .628 4.09 1.754a6.142 6.142 0 011.706 4.267V17H6.205V9.521c0-1.605.616-3.14 1.706-4.267zM20.25 17h-.954V9.521a7.641 7.641 0 00-2.128-5.309A7.187 7.187 0 0012 2a7.187 7.187 0 00-5.168 2.212 7.641 7.641 0 00-2.127 5.31V17H3.75a.75.75 0 000 1.5h4.508a3.75 3.75 0 007.484 0h4.508a.75.75 0 000-1.5zm-6.014 1.5H9.764a2.25 2.25 0 004.472 0z" fill="currentColor"/></svg>