<svg width="24" height="24" viewBox="0 0 24 24" fill="none" xmlns="http://www.w3.org/2000/svg" style="display: block"><path fill-rule="evenodd" clip-rule="evenodd" d="M21.78 3.28a.75.75 0 00-1.06-1.06l-18.5 18.5a.75.75 0 101.06 1.06l18.5-18.5zM9.63 18.96l-.767-.64 1.065-1.065.662.552a.25.25 0 00.41-.192v-1.432l1.5-1.5v2.932c0 1.484-1.73 2.294-2.87 1.344zM11 5.884V9.82l1.5-1.5V5.885c0-1.484-1.73-2.294-2.87-1.344L5.478 8H3.75A1.75 1.75 0 002 9.75v4c0 .966.784 1.75 1.75 1.75h1.569l1.137-1.138-.22-.184A.747.747 0 005.75 14h-2a.25.25 0 01-.25-.25v-4a.25.25 0 01.25-.25h2a.75.75 0 00.48-.174l4.36-3.633a.25.25 0 01.41.192zm9.617.68l-1.106 1.106c1.759 3.422 1.175 7.752-1.776 10.533a.75.75 0 101.03 1.092c3.578-3.374 4.177-8.677 1.852-12.73zm-3.743 3.744L15.5 11.683v.067c0 1.201-.31 2.33-.85 3.05a.75.75 0 101.2.9c.794-1.059 1.15-2.54 1.15-3.95a8.21 8.21 0 00-.126-1.441z" fill="currentColor"/></svg>