<svg width="24" height="24" viewBox="0 0 24 24" fill="none" xmlns="http://www.w3.org/2000/svg" style="display: block"><path fill-rule="evenodd" clip-rule="evenodd" d="M16.25 3a.75.75 0 01.75.75V5.2h3.25a.75.75 0 010 1.5H17v1.45a.75.75 0 01-1.5 0v-4.4a.75.75 0 01.75-.75zM3.75 5.2a.75.75 0 000 1.5H14V5.2H3.75zm4 9.75A.75.75 0 017 14.2v-1.45H3.75a.75.75 0 010-1.5H7V9.8a.75.75 0 111.5 0v4.4a.75.75 0 01-.75.75zm3-3.7H10v1.5h10.25a.75.75 0 000-1.5h-9.5zm3.25 4.6a.75.75 0 00-1.5 0v4.4a.75.75 0 001.5 0V18.8h6.25a.75.75 0 000-1.5H14v-1.45zm-11 2.2a.75.75 0 01.75-.75H11v1.5H3.75a.75.75 0 01-.75-.75z" fill="currentColor"/></svg>