<svg width="24" height="24" viewBox="0 0 24 24" fill="none" xmlns="http://www.w3.org/2000/svg" style="display: block"><path fill-rule="evenodd" clip-rule="evenodd" d="M2.75 5.75A3.75 3.75 0 016.5 2h13c.966 0 1.75.784 1.75 1.75v8.5A1.75 1.75 0 0119.5 14h-5.05l.52 4.683a2.988 2.988 0 11-5.94 0L9.55 14H4.5a1.75 1.75 0 01-1.75-1.75v-6.5zm11.5.5V3.5H6.5a2.25 2.25 0 00-2.25 2.25V9h15.5V3.75a.25.25 0 00-.25-.25h-3.75v2.75a.75.75 0 01-1.5 0zm-10 6V10.5h15.5v1.75a.25.25 0 01-.25.25h-15a.25.25 0 01-.25-.25zm6.271 6.598l.484-4.348h1.99l.484 4.348a1.488 1.488 0 11-2.957 0z" fill="currentColor"/></svg>