<svg width="24" height="24" viewBox="0 0 24 24" fill="none" xmlns="http://www.w3.org/2000/svg" style="display: block"><path fill-rule="evenodd" clip-rule="evenodd" d="M6.75 3.5A3.25 3.25 0 003.5 6.75v8.162l3.564-1.783A1.75 1.75 0 019 13.378l3.116 2.726 3.997-1.998a1.75 1.75 0 011.833.165l2.555 1.916V6.75a3.25 3.25 0 00-3.25-3.25H6.75zm13.664 14.498l-3.37-2.527a.25.25 0 00-.261-.024l-3.457 1.728 3.672 3.264c.022.02.042.04.061.061h.191a3.251 3.251 0 003.164-2.502zM14.809 20.5l-3.305-2.938-3.493-3.056a.25.25 0 00-.276-.035L3.5 16.588v.662a3.25 3.25 0 003.25 3.25h8.059zM2 6.75A4.75 4.75 0 016.75 2h10.5A4.75 4.75 0 0122 6.75v10.5A4.75 4.75 0 0117.25 22H6.75A4.75 4.75 0 012 17.25V6.75zm12.5 1a1.25 1.25 0 100 2.5 1.25 1.25 0 000-2.5zM11.75 9a2.75 2.75 0 115.5 0 2.75 2.75 0 01-5.5 0z" fill="currentColor"/></svg>