<svg width="24" height="24" viewBox="0 0 24 24" fill="none" xmlns="http://www.w3.org/2000/svg" style="display: block"><path d="M12.5 2C8.225 2 4 4.74 4 9.177c0 2.82 1.65 4.423 2.65 4.423.413 0 .65-1.106.65-1.418 0-.373-.987-1.166-.987-2.717 0-3.222 2.55-5.506 5.85-5.506 2.838 0 4.938 1.551 4.938 4.4 0 2.128-.888 6.119-3.763 6.119-1.038 0-1.926-.721-1.926-1.755 0-1.515 1.1-2.981 1.1-4.544 0-2.652-3.912-2.171-3.912 1.034 0 .673.087 1.418.4 2.032-.576 2.38-1.75 5.926-1.75 8.378 0 .758.112 1.503.187 2.26.141.153.07.137.287.06 2.1-2.765 2.026-3.305 2.976-6.923.512.938 1.837 1.442 2.887 1.442 4.425 0 6.413-4.147 6.413-7.886 0-3.978-3.576-6.575-7.5-6.575V2z" fill="currentColor"/></svg>