<svg width="24" height="24" viewBox="0 0 24 24" fill="none" xmlns="http://www.w3.org/2000/svg" style="display: block"><path fill-rule="evenodd" clip-rule="evenodd" d="M7.23 8.916L12 4.126l4.77 4.79a6.809 6.809 0 010 9.6 6.726 6.726 0 01-9.54 0 6.809 6.809 0 010-9.6zm5.476-6.207a.995.995 0 00-1.412 0L6.166 7.858c-3.221 3.235-3.221 8.48 0 11.716a8.226 8.226 0 0011.668 0c3.221-3.236 3.221-8.481 0-11.716l-5.128-5.15zM15.5 17.545A4.924 4.924 0 0112 19V7l3.5 3.515a4.985 4.985 0 010 7.03z" fill="currentColor"/></svg>