<svg width="24" height="24" viewBox="0 0 24 24" fill="none" xmlns="http://www.w3.org/2000/svg" style="display: block"><path fill-rule="evenodd" clip-rule="evenodd" d="M3.5 12A8.5 8.5 0 0112 3.5v17A8.5 8.5 0 013.5 12zm13.667 6.748a8.467 8.467 0 01-3.11 1.5H13.5v-1.5h3.667zm2.462-2.998a8.507 8.507 0 01-.945 1.5H13.5v-1.5h6.129zm.837-3.001a8.477 8.477 0 01-.268 1.5H13.5v-1.5h6.966zm-.268-3c.132.483.223.985.268 1.5H13.5v-1.5h6.698zm-1.514-3c.365.464.682.967.945 1.5H13.5v-1.5h5.184zm-4.634-3a8.466 8.466 0 013.115 1.5H13.5v-1.5h.55zM12 2C6.476 2 2 6.477 2 12c0 5.522 4.477 10 10 10 5.522 0 10-4.478 10-10 0-5.523-4.478-10-10-10z" fill="currentColor"/></svg>