<svg width="24" height="24" viewBox="0 0 24 24" fill="none" xmlns="http://www.w3.org/2000/svg" style="display: block"><path fill-rule="evenodd" clip-rule="evenodd" d="M17.669 3.5a1.824 1.824 0 00-1.828 1.82c0 1.002.816 1.82 1.828 1.82a1.824 1.824 0 001.827-1.82c0-1.003-.816-1.82-1.827-1.82zM14.34 5.32A3.324 3.324 0 0117.67 2a3.324 3.324 0 013.327 3.32 3.324 3.324 0 01-3.327 3.32 3.323 3.323 0 01-2.41-1.03L9.502 11a3.311 3.311 0 010 1.998l5.757 3.392a3.323 3.323 0 012.41-1.03 3.324 3.324 0 013.327 3.32A3.324 3.324 0 0117.67 22a3.324 3.324 0 01-3.174-4.32L8.737 14.29a3.323 3.323 0 01-2.41 1.03A3.324 3.324 0 013 12a3.324 3.324 0 013.328-3.32c.947 0 1.803.396 2.41 1.03l5.757-3.392c-.1-.315-.154-.65-.154-.998zM17.67 16.86a1.824 1.824 0 00-1.828 1.82c0 1.003.816 1.82 1.828 1.82a1.824 1.824 0 001.827-1.82c0-1.003-.816-1.82-1.827-1.82zM4.5 12c0-1.003.816-1.82 1.828-1.82 1.011 0 1.827.817 1.827 1.82 0 1.003-.816 1.82-1.827 1.82A1.824 1.824 0 014.5 12z" fill="currentColor"/></svg>