<svg width="24" height="24" viewBox="0 0 24 24" fill="none" xmlns="http://www.w3.org/2000/svg" style="display: block"><path fill-rule="evenodd" clip-rule="evenodd" d="M18 3.5H6A2.5 2.5 0 003.5 6v12A2.5 2.5 0 006 20.5h12a2.5 2.5 0 002.5-2.5V6A2.5 2.5 0 0018 3.5zM6 2a4 4 0 00-4 4v12a4 4 0 004 4h12a4 4 0 004-4V6a4 4 0 00-4-4H6zm11.503 8.126a.75.75 0 001.5 0V6.75A1.75 1.75 0 0017.253 5h-3.377a.75.75 0 000 1.5h3.377a.25.25 0 01.25.25v3.376zM6.5 13.876a.75.75 0 00-1.5 0v3.377c0 .966.784 1.75 1.75 1.75h3.376a.75.75 0 000-1.5H6.75a.25.25 0 01-.25-.25v-3.377zm6.626 4.377a.75.75 0 01.75-.75h3.377a.25.25 0 00.25-.25v-3.377a.75.75 0 011.5 0v3.377a1.75 1.75 0 01-1.75 1.75h-3.377a.75.75 0 01-.75-.75zM10.876 5.75a.75.75 0 01-.75.75H6.75a.25.25 0 00-.25.25v3.376a.75.75 0 01-1.5 0V6.75C5 5.784 5.783 5 6.75 5h3.376a.75.75 0 01.75.75z" fill="currentColor"/></svg>