<svg width="24" height="24" viewBox="0 0 24 24" fill="none" xmlns="http://www.w3.org/2000/svg" style="display: block"><path d="M12.169 2.66c.825 0 3.622.231 4.943 3.185.441.994.336 2.683.249 4.04l-.003.049c-.01.151-.018.288-.024.425.102.054.217.08.333.074.25-.013.55-.1.862-.25a.84.84 0 01.386-.086c.152 0 .3.023.424.074.374.125.612.4.612.699.013.374-.325.7-1.01.973-.074.024-.176.063-.287.1-.376.112-.95.299-1.112.674-.075.188-.05.437.102.723l.012.013c.05.113 1.273 2.897 3.995 3.347a.416.416 0 01.349.424.535.535 0 01-.038.187c-.2.474-1.06.824-2.622 1.058-.049.076-.1.314-.137.476-.022.15-.062.3-.11.46-.064.226-.225.337-.463.337h-.025a2.543 2.543 0 01-.448-.06 4.976 4.976 0 00-1.062-.113 3.99 3.99 0 00-.758.062c-.501.088-.937.387-1.437.736-.712.499-1.523 1.074-2.745 1.074-.05 0-.1-.012-.152-.012h-.123c-1.224 0-2.022-.563-2.733-1.074-.499-.35-.923-.649-1.423-.737a5.72 5.72 0 00-.773-.062c-.45 0-.799.074-1.06.124a2.354 2.354 0 01-.45.061.466.466 0 01-.488-.349c-.05-.16-.073-.324-.11-.473-.04-.151-.089-.41-.139-.474-1.599-.186-2.46-.536-2.658-1.022A.49.49 0 012 17.135a.412.412 0 01.35-.424c2.72-.45 3.943-3.232 3.994-3.35l.014-.024c.15-.287.186-.538.1-.724-.163-.362-.738-.548-1.11-.674a1.823 1.823 0 01-.29-.1c-.922-.362-1.047-.774-.996-1.06.074-.399.56-.66.973-.66.121 0 .225.023.32.062.349.16.657.25.92.25a.77.77 0 00.386-.089l-.042-.475c-.083-1.354-.189-3.042.256-4.03 1.28-2.94 4.072-3.166 4.896-3.166l.347-.011h.051z" fill="currentColor"/></svg>