<svg width="24" height="24" viewBox="0 0 24 24" fill="none" xmlns="http://www.w3.org/2000/svg" style="display: block"><path d="M.148 13.027L0 14.357l.148 1.328c0 .074.074.074.074.074.073 0 .073-.074.073-.074l.222-1.329-.222-1.33c0-.073-.073-.073-.073-.073s-.074 0-.074.074zm.886-.812l-.222 2.141.222 2.142c0 .073.074.073.074.073.074 0 .074-.073.074-.073l.295-2.142-.295-2.141c0-.074-.074-.074-.074-.074l-.074.074zm2.806-.296l-.148 2.437.148 2.585c0 .074.074.148.148.148a.159.159 0 00.147-.148l.296-2.585-.222-2.437a.159.159 0 00-.147-.148c-.148 0-.222.074-.222.148zm-1.846-.148l-.222 2.585.222 2.437c0 .074.074.148.148.148 0 0 .073-.074.073-.148l.222-2.437-.222-2.585a.159.159 0 00-.147-.147c0 .074-.074.074-.074.147zm.886-.073l-.222 2.658.222 2.51c0 .075.074.149.148.149a.159.159 0 00.147-.148l.222-2.51-.222-2.66a.159.159 0 00-.147-.147c-.074 0-.074.074-.148.148zm1.92-1.33l-.222 3.988.222 2.585c0 .074.074.148.148.148.147 0 .221-.074.221-.148l.222-2.585-.222-3.988a.159.159 0 00-.147-.147c-.148 0-.222.074-.222.147zm.96-.886l-.148 4.874.148 2.585c0 .148.074.221.222.221.073 0 .221-.073.221-.221l.222-2.585-.222-4.874c0-.147-.074-.221-.221-.221-.148 0-.222.074-.222.221zm3.914-.221l-.148 5.095.148 2.437c0 .148.148.296.295.296a.318.318 0 00.296-.296l.147-2.437-.147-5.17a.318.318 0 00-.296-.294c-.221.073-.295.147-.295.369zM6.72 9.039l-.148 5.317.148 2.51c0 .149.074.223.222.223.147 0 .221-.074.221-.222l.148-2.51-.148-5.318c0-.147-.074-.221-.221-.221-.148 0-.222.147-.222.221zm1.92 0l-.148 5.317.148 2.51c0 .149.148.296.295.296a.318.318 0 00.296-.295l.147-2.51-.147-5.318a.318.318 0 00-.296-.295.318.318 0 00-.295.295zm-.96-.147l-.148 5.464.148 2.51c0 .149.074.223.222.223.147 0 .221-.074.221-.222l.148-2.51-.148-5.465c0-.148-.148-.222-.221-.222-.074 0-.222.074-.222.222zm2.954-.665l-.148 6.13.148 2.436c0 .148.147.296.295.296a.318.318 0 00.296-.296l.147-2.437-.147-6.13a.318.318 0 00-.296-.294.318.318 0 00-.295.295zm1.034-.517l-.148 6.646.148 2.437c0 .148.147.296.295.296a.318.318 0 00.296-.296l.147-2.437-.148-6.646a.318.318 0 00-.295-.295h-.074c-.147 0-.221.147-.221.295zm1.181-.665c-.221.074-.295.148-.295.37v9.378c0 .148.147.296.295.37h8.197A2.962 2.962 0 0024 14.208a2.962 2.962 0 00-2.954-2.954c-.37 0-.812.073-1.107.221a5.158 5.158 0 00-5.17-4.726H14.4c-.517 0-1.034.148-1.55.295z" fill="currentColor"/></svg>