<svg width="24" height="24" viewBox="0 0 24 24" fill="none" xmlns="http://www.w3.org/2000/svg" style="display: block"><path fill-rule="evenodd" clip-rule="evenodd" d="M20.5 14c0 1.25-.269 2.434-.751 3.5H4.25A8.464 8.464 0 013.5 14a8.5 8.5 0 0117 0zm-.415 5c.357 0 .69-.189.851-.507A9.959 9.959 0 0022 14c0-5.523-4.477-10-10-10S2 8.477 2 14c0 1.616.383 3.142 1.064 4.493.16.319.494.507.85.507h16.171zM12.75 7.75a.75.75 0 00-1.5 0v1a.75.75 0 001.5 0v-1zm-5.7 1.3a.75.75 0 011.06 0l.708.707a.75.75 0 11-1.06 1.061l-.708-.707a.75.75 0 010-1.06zm9.9 1.06a.75.75 0 10-1.06-1.06l-.42.42-.288.287-2.793 2.794a1.5 1.5 0 101.06 1.06l2.792-2.79.002-.003.287-.288.42-.42zM19 14a.75.75 0 01-.75.75h-1a.75.75 0 010-1.5h1A.75.75 0 0119 14zm-12.25.75a.75.75 0 000-1.5h-1a.75.75 0 000 1.5h1z" fill="currentColor"/></svg>