<svg width="24" height="24" viewBox="0 0 24 24" fill="none" xmlns="http://www.w3.org/2000/svg" style="display: block"><path d="M12 1.5C6.2 1.5 1.5 6.201 1.5 12c0 5.8 4.701 10.5 10.5 10.5 5.8 0 10.5-4.7 10.5-10.5 0-5.799-4.7-10.5-10.5-10.5zm4.815 15.144a.654.654 0 01-.9.217c-2.465-1.506-5.569-1.847-9.224-1.012a.655.655 0 01-.291-1.276c4-.915 7.43-.52 10.198 1.17.309.19.407.593.217.901zm1.285-2.86a.818.818 0 01-1.126.27c-2.822-1.734-7.124-2.237-10.463-1.223a.82.82 0 01-.475-1.567c3.813-1.157 8.554-.596 11.795 1.395a.818.818 0 01.27 1.126zm.11-2.977c-3.383-2.01-8.967-2.194-12.198-1.214a.982.982 0 11-.57-1.88c3.71-1.125 9.875-.908 13.771 1.405a.981.981 0 11-1.002 1.69z" fill="currentColor"/></svg>