<svg width="24" height="24" viewBox="0 0 24 24" fill="none" xmlns="http://www.w3.org/2000/svg" style="display: block"><path fill-rule="evenodd" clip-rule="evenodd" d="M20.5 7.746v4.243H17.956a5.973 5.973 0 00-5.967 5.967V20.5H7.745A4.251 4.251 0 013.5 16.254V7.746A4.251 4.251 0 017.746 3.5h8.508A4.251 4.251 0 0120.5 7.745v.001zM3.685 20.316A5.75 5.75 0 007.745 22h5.106c.03 0 .062-.003.092-.007l.018-.003a.63.63 0 00.089-.022h.003a6.13 6.13 0 001.058-.49c2.482-1.407 5.96-4.885 7.367-7.367a6.13 6.13 0 00.49-1.058v-.003a.63.63 0 00.022-.089l.003-.018a.635.635 0 00.007-.092V7.745A5.75 5.75 0 0016.255 2h-8.51A5.751 5.751 0 002 7.745v8.51a5.751 5.751 0 001.685 4.06zM14.799 14.8a4.473 4.473 0 013.158-1.31h2.412c-.258.46-.607.97-1.016 1.5-1.173 1.514-2.849 3.19-4.364 4.363-.529.41-1.038.758-1.5 1.016v-2.412A4.473 4.473 0 0114.8 14.8z" fill="currentColor"/></svg>