<svg width="24" height="24" viewBox="0 0 24 24" fill="none" xmlns="http://www.w3.org/2000/svg" style="display: block"><path fill-rule="evenodd" clip-rule="evenodd" d="M7.484 2a3.75 3.75 0 00-3.75 3.75v1.548l-.454-.454a.75.75 0 00-1.06 1.061l1.734 1.734a.75.75 0 001.06 0L6.75 7.905a.75.75 0 10-1.06-1.06l-.455.453V5.75a2.25 2.25 0 012.25-2.25H9.11a.75.75 0 000-1.5H7.484zm9.03 20a3.75 3.75 0 003.75-3.75v-1.548l.454.454a.75.75 0 001.061-1.061l-1.734-1.734a.75.75 0 00-1.06 0l-1.735 1.734a.75.75 0 101.06 1.06l.455-.453v1.548a2.25 2.25 0 01-2.25 2.25H14.89a.75.75 0 000 1.5h1.625zM12.41 4.75A2.75 2.75 0 0115.16 2h4.093a2.75 2.75 0 012.75 2.75v4.093a2.75 2.75 0 01-2.75 2.75H15.16a2.75 2.75 0 01-2.75-2.75V4.75zm2.75-1.25c-.69 0-1.25.56-1.25 1.25v4.093c0 .69.56 1.25 1.25 1.25h4.093c.69 0 1.25-.56 1.25-1.25V4.75c0-.69-.56-1.25-1.25-1.25H15.16zM4.75 12.405A2.75 2.75 0 002 15.155v4.094a2.75 2.75 0 002.75 2.75h4.093a2.75 2.75 0 002.75-2.75v-4.093a2.75 2.75 0 00-2.75-2.75H4.75zm-1.25 2.75c0-.69.56-1.25 1.25-1.25h4.093c.69 0 1.25.56 1.25 1.25v4.094c0 .69-.56 1.25-1.25 1.25H4.75c-.69 0-1.25-.56-1.25-1.25v-4.093z" fill="currentColor"/></svg>