<svg width="24" height="24" viewBox="0 0 24 24" fill="none" xmlns="http://www.w3.org/2000/svg" style="display: block"><path fill-rule="evenodd" clip-rule="evenodd" d="M17.636 2.22a.75.75 0 011.06 0l3.083 3.082a.75.75 0 010 1.06l-2.936 2.936 1.111 1.111a.75.75 0 01-1.06 1.06l-1.11-1.11-9.494 9.495a.75.75 0 01-.53.22H4.987L3.28 21.779a.75.75 0 11-1.06-1.06l1.706-1.707V16.24a.75.75 0 01.22-.53l9.493-9.494-1.11-1.11a.75.75 0 111.06-1.061l1.11 1.11 2.936-2.936zm-2.939 5.06l-9.27 9.27v2.024h2.022l9.27-9.271-2.022-2.023z" fill="currentColor"/></svg>