<svg width="24" height="24" viewBox="0 0 24 24" fill="none" xmlns="http://www.w3.org/2000/svg" style="display: block"><path d="M20.997 9.996a5.623 5.623 0 01-5.216-2.509v8.633a6.373 6.373 0 01-3.945 5.894 6.4 6.4 0 01-6.964-1.383 6.377 6.377 0 01-1.386-6.953 6.383 6.383 0 012.354-2.863A6.399 6.399 0 019.39 9.74c.134 0 .265.012.396.02v3.144c-.131-.016-.26-.04-.395-.04-.865 0-1.695.343-2.307.954a3.253 3.253 0 000 4.605c.612.61 1.442.954 2.307.954 1.801 0 3.393-1.417 3.393-3.216L12.815 1.5h3.013a5.6 5.6 0 001.677 3.438A5.616 5.616 0 0021 6.502v3.494" fill="currentColor"/></svg>