<svg width="24" height="24" viewBox="0 0 24 24" fill="none" xmlns="http://www.w3.org/2000/svg" style="display: block"><path d="M5.927 5.577c-.598-.476-1.256-.9-1.977-1.19C2.924 3.978 2 4.896 2 6v12.25c0 .966.784 1.75 1.75 1.75h16.5A1.75 1.75 0 0022 18.25V6c0-1.105-.928-2.024-1.943-1.587a7.108 7.108 0 00-1.67 1.043c-.995.813-1.857 1.858-2.591 2.77a5.089 5.089 0 01-.223.258C14.671 9.463 13.46 10 12.213 10c-1.248 0-2.458-.537-3.36-1.516-.103-.11-.207-.225-.313-.34-.775-.846-1.65-1.802-2.613-2.567z" fill="currentColor"/><path d="M2 4.75v0c2.567 0 4.561 2.356 6.301 4.243v0c1.038 1.125 2.445 1.757 3.912 1.757s2.874-.632 3.911-1.757c.089-.096.174-.196.256-.297C17.854 6.865 19.65 4.75 22 4.75v0" stroke="currentColor" stroke-width="1.5" stroke-linecap="round" stroke-linejoin="round"/></svg>