<svg width="24" height="24" viewBox="0 0 24 24" fill="none" xmlns="http://www.w3.org/2000/svg" style="display: block"><path fill-rule="evenodd" clip-rule="evenodd" d="M23.338 2.683c-.675.446-2.226 1.096-2.991 1.096A4.715 4.715 0 0016.88 2.25c-2.649 0-4.797 2.217-4.797 4.95 0 .38.043.75.122 1.105h-.001C8.611 8.208 4.682 6.35 2.316 3.168.862 5.766 2.12 8.656 3.771 9.709c-.565.044-1.605-.067-2.095-.56-.033 1.725.77 4.01 3.7 4.84-.564.313-1.563.223-1.997.156.152 1.456 2.128 3.36 4.288 3.36C6.897 18.424 4 20.09.75 19.56c2.207 1.386 4.78 2.189 7.503 2.189 7.739 0 13.748-6.474 13.425-14.46-.002-.01-.002-.018-.002-.027l.002-.063c0-.025-.002-.048-.003-.072A8.43 8.43 0 0024 4.593c-.392.223-1.567.668-2.66.78.702-.392 1.741-1.672 1.998-2.69z" fill="currentColor"/></svg>