<svg width="24" height="24" viewBox="0 0 24 24" fill="none" xmlns="http://www.w3.org/2000/svg" style="display: block"><path fill-rule="evenodd" clip-rule="evenodd" d="M16.937 3.501c-1.424-.014-2.727.32-3.37.963l-.006.007-.008.007-.007.007-.007.007-.007.008-.008.007-.007.007-.007.008-.008.007-.007.008-.008.007-.008.008-.007.008-.008.007-.008.008-.008.008-.007.008-.008.008-.008.008-.008.008-.008.008-.008.008-.009.008-.008.008-.008.009-.008.008-.009.008-.008.009-.008.008-.009.008-.008.009-.009.009-.008.008-.01.009-.008.008-.009.01-.008.008-.01.009-.008.009-.009.009-.009.009-.009.009-.009.009-.01.009-.008.009-.01.01-.009.008-.009.01-.01.009-.008.01-.01.009-.01.01-.009.009-.01.01-.009.009-.01.01-.01.009-.009.01-.01.01-.01.01-.01.009-.009.01-.01.01-.01.01-.01.01-.01.01-.01.01-.01.01-.01.01-.01.01-.01.01-.01.01-.01.01-.011.011-.01.01-.01.01-.011.011-.01.01-.011.011-.01.01-.011.011-.011.011-.01.01-.011.011-.011.011-.01.01-.012.012-.01.01-.011.011-.011.011-.011.011-.011.011-.011.011-.011.011-.011.011-.011.012-.011.01-.012.012-.01.011-.012.011-.011.012-.012.011-.011.011-.011.012-.012.011-.011.012-.012.011-.011.012-.012.011-.011.012-.012.011-.012.012-.011.012-.012.012-.012.011-.012.012-.011.012-.012.012-.012.012-.012.012-.012.012-.012.011-.012.012-.012.013-.012.012-.012.012-.012.012-.012.012-.013.012-.012.012-.012.013-.012.012-.013.012-.012.013-.012.012-.013.012-.012.013-.012.012-.013.013-.012.012-.013.013-.012.012-.013.013-.013.012-.012.013-.013.013-.013.012-.012.013-.013.013-.013.013-.013.012-.012.013-.013.013-.013.013-.013.013-.013.013-.013.013-.013.013-.013.013-.013.013-.013.013-.013.013-.013.013-.013.013-.013.013-.013.013-.013.013-.014.014-.013.013-.013.013-.013.013-.014.014-.013.013-.013.013-.014.014-.013.013-.013.013-.014.014-.013.013-.014.014-.013.013-.014.014-.013.013-.014.014-.013.013-.014.014-.013.014-.014.013-.014.014-.013.014-.014.013-.014.014-.013.014-.014.013-.014.014-.014.014-.014.014-.013.014-.014.013-.014.014-.014.014-.014.014-.014.014-.014.014-.013.014-.014.014-.014.014-.014.014-.014.014-.014.014-.014.014-.014.014-.014.014-.015.014-.014.014-.014.014-.014.014-.014.015-.014.014-.014.014-.014.014-.015.014-.014.015-.014.014-.014.014-.015.014-.014.015-.014.014-.014.014-.015.014-.014.015-.014.014-.015.015-.014.014-.014.014-.015.015-.014.014-.015.014-.014.015-.014.014-.015.015-.014.014-.015.015-.014.014-.015.015-.014.014-.015.015-.014.014-.015.015-.014.014-.015.015-.014.014-.015.015-.014.015-.015.014-.015.015-.014.014-.015.015-.014.015-.015.014-.015.015-.014.014-.015.015-.015.015-.014.014-.015.015-.015.015-.014.014-.015.015-.015.015-.014.015-.015.014-.015.015-.014.015-.015.014-.015.015-.014.015-.015.015-.015.014-.015.015-.014.015-.015.015-.015.014-.015.015-.014.015-.015.015-.015.015-.015.014-.015.015-.014.015-.015.015-.015.014-.015.015-.014.015-.015.015-.015.015-.015.014-.015.015-.014.015-.015.015-.015.015-.015.015-.015.014-.014.015-.015.015-.015.015-.015.015-.015.014-.015.015-.014.015-.015.015-.015.015-.015.015-.015.014-.014.015-.015.015-.015.015-.015.015-.015.014-.014.015-.015.015-.015.015-.015.015-.015.014-.014.015-.015.015-.015.015-.015.015-.014.014-.015.015-.015.015-.015.015-.014.015-.015.014-.015.015-.015.015-.014.015-.015.014-.015.015-.015.015-.014.015-.015.014-.015.015-.014.015-.015.014-.015.015-.015.015-.014.014-.015.015-.015.015-.014.015-.015.014-.015.015-.014.014-.015.015-.014.015-.015.014-.015.015-.014.015-.015.014-.014.015-.015.014-.015.015-.014.015-.015.014-.014.015-.015.014-.014.015-.015.014-.014.015-.015.014-.014.015-.015.014-.014.015-.015.014-.014.015-.014.014-.015.014-.014.015-.015.014-.014.015-.014.014-.015.014-.014.015-.014.014-.015.014-.014.015-.014.014-.015.014-.014.015-.014.014-.014.014-.014.014-.015.015-.014.014-.014.014-.014.014-.014.014-.015.014-.014.015-.014.014-.014.014-.014.014-.014.014-.014.014-.014.014-.014.014-.014.014-.014.014-.014.014-.014.014-.014.014-.014.014-.014.014-.014.014-.013.014-.014.013-.014.014-.014.014-.014.014-.013.014-.014.013-.014.014-.014.014-.013.014-.014.013-.014.014-.013.014-.014.013-.014.014-.013.014-.014.013-.013.014-.014.013-.013.014-.014.013-.013.014-.014.013-.013.013-.013.014-.014.013-.013.014-.013.013-.014.013-.013.014-.013.013-.014.013-.013.013-.013.014-.013.013-.013.013-.013.013-.013.013-.014.013-.013.013-.013.013-.013.013-.013.013-.013.013-.012.013-.013.013-.013.013-.013.013-.013.013-.013.013-.013.012-.012.013-.013.013-.013.013-.012.012-.013.013-.013.012-.012.013-.013.013-.012.012-.013.013-.012.012-.013.013-.012.012-.013.013-.012.012-.012.012-.013.013-.012.012-.012.012-.012.012-.013.013-.012.012-.012.012-.012.012-.012.012-.012.012-.012.012-.012.012-.012.012-.012.012-.012.012-.012.012-.012.012-.012.012-.011.011-.012.012-.012.012-.011.012-.012.011-.012.012-.011.011-.012.012-.011.012-.012.011-.011.012-.012.011a1.249 1.249 0 00.002 1.767l.697.697 2.813 2.815.696.698c.49.489 1.278.489 1.765.002L13 16.99l.011-.011.012-.012.011-.011.012-.012.011-.012.012-.011.012-.012.011-.012.012-.011.012-.012.011-.012.012-.012.012-.012.012-.011.012-.012.012-.012.012-.012.012-.012.012-.012.012-.012.012-.012.012-.013.012-.012.012-.012.013-.012.012-.012.012-.013.012-.012.013-.012.012-.013.012-.012.013-.012.012-.013.013-.012.012-.013.013-.012.012-.013.013-.012.012-.013.013-.013.013-.012.012-.013.013-.013.013-.013.012-.012.013-.013.013-.013.013-.013.013-.013.013-.012.013-.013.012-.013.014-.013.012-.013.013-.013.014-.013.013-.013.013-.014.013-.013.013-.013.013-.013.013-.013.013-.013.013-.014.014-.013.013-.013.013-.013.014-.014.013-.013.013-.013.014-.014.013-.013.014-.014.013-.013.013-.013.014-.014.013-.013.014-.014.013-.014.014-.013.014-.014.013-.013.014-.014.013-.014.014-.013.014-.014.013-.014.014-.013.014-.014.014-.014.013-.014.014-.013.014-.014.014-.014.014-.014.014-.014.013-.014.014-.014.014-.014.014-.014.014-.013.014-.014.014-.014.014-.014.014-.014.014-.014.014-.015.014-.014.014-.014.014-.014.014-.014.015-.014.014-.014.014-.014.014-.015.014-.014.014-.014.015-.014.014-.014.014-.015.014-.014.015-.014.014-.014.014-.015.014-.014.015-.014.014-.015.014-.014.015-.014.014-.015.014-.014.015-.015.014-.014.015-.014.014-.015.015-.014.014-.015.014-.014.015-.015.014-.014.015-.015.014-.014.015-.015.014-.014.015-.015.014-.014.015-.015.015-.015.014-.014.015-.015.014-.014.015-.015.014-.014.015-.015.015-.015.014-.014.015-.015.015-.015.014-.014.015-.015.014-.015.015-.014.015-.015.014-.015.015-.014.015-.015.015-.015.014-.015.015-.014.015-.015.014-.015.015-.014.015-.015.015-.015.014-.015.015-.014.015-.015.015-.015.014-.015.015-.015.015-.014.015-.015.014-.015.015-.015.015-.014.015-.015.015-.015.014-.015.015-.015.015-.014.015-.015.014-.015.015-.015.015-.015.015-.014.015-.015.014-.015.015-.015.015-.015.015-.015.015-.014.014-.015.015-.015.015-.015.015-.015.015-.014.015-.015.014-.015.015-.015.015-.015.015-.015.015-.014.014-.015.015-.015.015-.015.015-.015.015-.014.014-.015.015-.015.015-.015.015-.015.015-.014.014-.015.015-.015.015-.015.015-.015.014-.014.015-.015.015-.015.015-.015.014-.014.015-.015.015-.015.015-.015.014-.014.015-.015.015-.015.014-.015.015-.014.015-.015.014-.015.015-.014.015-.015.014-.015.015-.014.015-.015.014-.015.015-.014.015-.015.014-.015.015-.014.015-.015.014-.015.015-.014.014-.015.015-.014.015-.015.014-.015.015-.014.014-.015.015-.014.014-.015.015-.014.014-.015.015-.014.014-.015.015-.014.014-.015.015-.014.014-.015.015-.014.014-.015.014-.014.015-.014.014-.015.015-.014.014-.015.014-.014.015-.014.014-.015.014-.014.015-.014.014-.015.014-.014.014-.014.015-.014.014-.015.014-.014.014-.014.015-.014.014-.015.014-.014.014-.014.014-.014.014-.014.014-.014.014-.014.015-.014.014-.015.014-.014.014-.014.014-.014.014-.014.014-.014.014-.014.014-.014.014-.014.013-.014.014-.014.014-.013.014-.014.014-.014.014-.014.014-.014.013-.014.014-.013.014-.014.014-.014.013-.014.014-.013.014-.014.013-.014.014-.013.014-.014.013-.014.014-.013.013-.014.014-.013.013-.014.014-.013.013-.014.014-.013.013-.014.014-.013.013-.014.014-.013.013-.013.013-.014.014-.013.013-.013.013-.014.013-.013.014-.013.013-.013.013-.013.013-.013.013-.014.013-.013.013-.013.013-.013.013-.013.013-.013.013-.013.013-.013.013-.013.013-.013.013-.013.013-.013.013-.012.012-.013.013-.013.013-.013.013-.012.013-.013.012-.013.013-.013.012-.012.013-.013.013-.012.012-.013.013-.012.012-.013.013-.012.012-.013.012-.012.013-.013.012-.012.012-.012.013-.013.012-.012.012-.012.012-.012.013-.013.012-.012.012-.012.012-.012.012-.012.012-.012.012-.012.012-.012.012-.012.012-.012.012-.012.012-.012.011-.011.012-.012.012-.012.012-.012.011-.011.012-.012.012-.012.011-.011.012-.012.011-.011.012-.012.011-.011.012-.012.01-.011.012-.011.012-.012.01-.011.012-.011.011-.012.012-.01.01-.012.012-.011.01-.011.012-.011.011-.011.01-.011.012-.011.01-.011.012-.011.01-.01.011-.012.011-.01.01-.011.011-.01.011-.012.01-.01.011-.01.01-.011.011-.01.01-.011.011-.01.01-.011.011-.01.01-.01.01-.011.01-.01.011-.01.01-.01.01-.01.01-.01.01-.011.01-.01.01-.01.01-.01.01-.01.01-.01.01-.01.01-.01.01-.009.009-.01.01-.01.01-.009.009-.01.01-.009.009-.01.01-.009.008-.01.01-.009.01-.009.008-.01.01-.008.009-.01.009-.009.01-.009.008-.009.01-.009.008-.009.009-.009.009-.009.009-.008.009-.01.008-.008.009-.009.009-.008.008-.009.009-.009.008-.008.009-.009.008-.008.008-.008.009-.009.008-.008.008-.008.009-.008.008-.009.008-.008.008-.008.008-.008.008-.008.008-.008.008-.008.007-.007.008-.008.008-.008.008-.008.007-.007.008-.008.007-.007.008-.008.007-.007.008-.008.007-.007.007-.007.007-.007.008-.008.007-.007.007-.007c.642-.643.975-1.947.962-3.372a7.863 7.863 0 00-.235-1.878c-.148-.562-.329-.885-.45-1.006-.12-.121-.444-.302-1.005-.45a7.846 7.846 0 00-1.876-.235zm2.258-1.216c.638.168 1.277.433 1.684.84.406.406.67 1.046.839 1.685.175.668.276 1.45.284 2.245.015 1.538-.319 3.365-1.401 4.448l-.007.007-.007.008-.008.007-.007.007-.007.007-.007.008-.008.007-.007.007-.008.008-.007.007-.008.008-.007.008-.008.007-.008.008-.008.008-.007.008-.008.008-.008.007-.008.008-.008.008-.008.008-.008.008-.008.009-.008.008-.009.008-.008.008-.008.009-.009.008-.008.009-.009.008-.008.009-.009.008-.008.009-.009.008-.009.01-.008.008-.01.009-.008.008-.009.01-.009.008-.009.01-.009.008-.009.01-.009.008-.009.01-.01.009-.008.009-.01.01-.009.008-.01.01-.009.01-.01.009-.009.01-.01.009-.009.01-.01.009-.009.01-.01.01-.01.009-.009.01-.01.01-.01.01-.01.01-.01.01-.01.01-.01.01-.01.01-.01.01-.01.01-.01.01-.01.01-.01.01-.01.01-.01.01-.011.011-.01.01-.011.01-.01.011-.011.01-.01.011-.011.011-.01.01-.011.011-.011.01-.01.012-.011.01-.011.011-.011.011-.011.011-.01.01-.012.012-.01.01-.012.012-.01.01-.012.012-.011.011-.011.011-.011.011-.012.012-.01.011-.012.011-.012.012-.01.011-.012.011-.012.012-.011.011-.012.012-.011.011-.012.012-.011.011-.012.012-.012.012-.011.011-.012.012-.012.012-.012.012-.011.011-.012.012-.012.012-.012.012-.012.012-.012.012-.012.012-.012.012-.012.012-.012.012-.012.012-.012.013-.012.012-.013.012-.012.012-.012.013-.012.012-.013.012-.012.012-.012.013-.013.012-.012.013-.013.012-.012.013-.013.012-.012.013-.013.012-.012.013-.013.013-.013.012-.012.013-.013.013-.013.012-.012.013-.013.013-.013.013-.013.013-.013.012-.013.013-.013.013-.012.013-.014.013-.012.013-.014.013-.012.013-.014.013-.013.013-.013.014-.013.013-.013.013-.013.013-.013.013-.014.013-.013.014-.013.013-.013.013-.014.014-.013.013-.013.013-.014.014-.013.013-.014.013-.013.014-.013.013-.014.014-.013.013-.014.014-.013.013-.014.014-.014.014-.013.013-.014.014-.013.014-.014.013-.014.014-.013.014-.014.013-.014.014-.014.014-.013.014-.014.013-.014.014-.014.014-.014.014-.014.014-.014.014-.013.014-.014.014-.014.014-.014.013-.014.014-.014.014-.014.014-.014.014-.014.014-.014.014-.014.015-.014.014-.014.014-.006.005a3.74 3.74 0 01-.476 4.702l-1.759 1.76a.75.75 0 01-1.06 0l-1.724-1.727a2.747 2.747 0 01-3.005-.594l-.696-.697-2.814-2.816-.696-.697a2.753 2.753 0 01-.594-3.008L3.638 9.118a.75.75 0 010-1.062l1.758-1.76a3.732 3.732 0 014.697-.477l.005-.005.014-.014.014-.014.014-.014.014-.014.014-.014.014-.014.014-.014.014-.014.014-.014.014-.014.014-.014.014-.014.014-.014.014-.014.014-.014.014-.014.014-.014.013-.013.014-.014.014-.014.014-.014.013-.013.014-.014.014-.014.013-.014.014-.013.014-.014.013-.014.014-.013.014-.014.013-.013.014-.014.013-.013.014-.014.013-.013.014-.014.013-.013.013-.014.014-.013.013-.014.014-.013.013-.013.013-.014.013-.013.014-.013.013-.013.013-.014.013-.013.014-.013.013-.013.013-.013.013-.013.013-.013.013-.014.013-.013.013-.013.013-.013.013-.013.013-.012.013-.013.013-.013.013-.013.012-.013.013-.013.013-.013.013-.012L11 4.91l.012-.013.013-.013.013-.012.012-.013.013-.012.012-.013.013-.013.012-.012.013-.013.012-.012.013-.012.012-.013.013-.012.012-.013.012-.012.012-.012.013-.013.012-.012.012-.012.012-.012.012-.012.013-.012.012-.013.012-.012.012-.012.012-.012.012-.012.012-.012.012-.011.011-.012.012-.012.012-.012.012-.012.012-.012.011-.011.012-.012.012-.012.011-.011.012-.012.011-.011.012-.012.011-.011.012-.012.011-.011.012-.012.011-.011.011-.011.012-.012.01-.011.012-.011.011-.011.011-.012.012-.01.01-.012.012-.01.01-.012.012-.01.01-.012.011-.01.011-.012.011-.01.011-.011.01-.011.011-.01.011-.011.01-.011.012-.01.01-.011.01-.01.011-.011.01-.01.011-.011.01-.01.01-.011.011-.01.01-.01.01-.01.01-.011.01-.01.011-.01.01-.01.01-.01.01-.01.01-.01.01-.01.01-.01.01-.01.01-.01.01-.01.009-.01.01-.01.01-.009.009-.01.01-.009.009-.01.01-.009.009-.01.01-.009.009-.01.009-.009.01-.009.008-.009.01-.01.009-.008.009-.01.009-.009.009-.009.009-.008.009-.01.009-.008.008-.01.01-.008.008-.009.009-.008.008-.009.009-.009.008-.008.009-.009.008-.008.009-.009.008-.008.008-.008.009-.009.008-.008.008-.008.008-.008.008-.008.009-.008.008-.008.008-.008.007-.008.008-.008.008-.008.008-.008.008-.007.007-.008.008-.008.007-.007.008-.008.007-.007.008-.008.007-.007.008-.008.007-.007.007-.007.007-.007.007-.007.008-.007C13.59 2.319 15.415 1.986 16.951 2a9.338 9.338 0 012.243.285zm-10.2 4.633a2.234 2.234 0 00-2.538.44L5.228 8.587l1.05 1.05.008-.007.012-.013.012-.012.013-.012.012-.013.013-.012.012-.012.012-.013.013-.012.012-.013.013-.012.013-.013.012-.013.013-.012.012-.013.013-.013.013-.012.013-.013.012-.013.013-.013.013-.012.013-.013.013-.013.012-.013.013-.013.013-.013.013-.013.013-.013.013-.013.013-.013.013-.013.013-.013.013-.013.014-.013.013-.013.013-.014.013-.013.013-.013.014-.013.013-.014.013-.013.013-.013.014-.014.013-.013.013-.013.014-.014.013-.013.014-.014.013-.013.014-.014.013-.013.014-.014.013-.013.014-.014.013-.013L7 8.915l.013-.013.014-.014.014-.014.013-.014.014-.013.014-.014.014-.014.013-.013.014-.014.014-.014.014-.014.014-.014.013-.014.014-.013.014-.014.014-.014.014-.014.014-.014.014-.014.014-.014.014-.014.014-.014.014-.014.014-.014.014-.014.014-.014.014-.014.014-.014.014-.015.014-.014.014-.014.015-.014.014-.014.014-.014.014-.015.014-.014.015-.014.014-.014.014-.015.014-.014.015-.014.014-.014.014-.015.014-.014.015-.014.014-.015.014-.014.015-.014.014-.015.015-.014.014-.015.014-.014.015-.015.014-.014.015-.014.014-.015.015-.014.014-.015.015-.014.014-.015.015-.014.014-.015.015-.014.014-.015.015-.015.014-.014.015-.015.014-.014.015-.015.015-.014.014-.015.015-.015.014-.014.015-.015.015-.015.014-.014.015-.015.015-.015.014-.014.015-.015.015-.015.014-.014.015-.015.015-.015.014-.014.015-.015.015-.015.014-.015.015-.014.015-.015.015-.015.014-.015.015-.014.015-.015.015-.015.014-.015.015-.014.015-.015.015-.015.014-.015.015-.014.015-.015.015-.015.015-.015.014-.015.015-.014.015-.015.015-.015.014-.015.015-.015.015-.014.015-.015.015-.015.014-.015.015-.015.015-.015.015-.014.015-.015.014-.015.015-.015.015-.015.015-.014.015-.015.015-.015.014-.015.015-.015.015-.015.015-.014.015-.015.014-.015.015-.015.015-.015.015-.014.015-.015.014-.015.015-.015.015-.015.015-.014zm8.093 8.101c.395.83.248 1.854-.438 2.541l-1.229 1.23-1.05-1.051.008-.009.013-.012.012-.012.012-.012.013-.013.012-.012.012-.013.013-.012.012-.013.013-.012.012-.013.013-.012.013-.013.012-.012.013-.013.012-.013.013-.013.013-.012.013-.013.012-.013.013-.013.013-.012.013-.013.013-.013.013-.013.013-.013.013-.013.013-.013.013-.013.013-.013.013-.013.013-.013.013-.013.013-.014.013-.013.013-.013.014-.013.013-.013.013-.014.013-.013.014-.013.013-.014.013-.013.014-.013.013-.014.013-.013.014-.013.013-.014.014-.013.013-.014.013-.013.014-.014.014-.013.013-.014.014-.014.013-.013.014-.014.014-.013.013-.014.014-.014.014-.013.013-.014.014-.014.014-.014.014-.014.013-.013.014-.014.014-.014.014-.014.014-.014.014-.014.013-.014.014-.013.014-.014.014-.014.014-.014.014-.014.014-.014.014-.014.014-.014.014-.014.014-.015.014-.014.014-.014.015-.014.014-.014.014-.014.014-.014.014-.014.014-.015.015-.014.014-.014.014-.014.014-.015.014-.014.015-.014.014-.014.014-.015.015-.014.014-.014.014-.015.015-.014.014-.014.014-.015.015-.014.014-.014.014-.015.015-.014.014-.015.015-.014.014-.015.015-.014.014-.015.015-.014.014-.015.015-.014.014-.015.015-.014.014-.015.015-.014.014-.015.015-.014.014-.015.015-.015.014-.014.015-.015.015-.014.014-.015.015-.015.014-.014.015-.015.015-.015.014-.014.015-.015.015-.014.014-.015.015-.015.015-.015.014-.014.015-.015.015-.015.015-.014.014-.015.015-.015.015-.015.014-.014.015-.015.015-.015.015-.015.014-.014.015-.015.015-.015.015-.015.014-.014.015-.015.015-.015.015-.015.014-.015.015-.014.015-.015.015-.015.014-.015.015-.014.015-.015.015-.015.015-.015.015-.015.014-.015.015-.014.015-.015.015-.015.014-.015.015-.015.015-.014.015-.015.015-.015.015-.015.014-.015.015-.015.015-.014.015-.015.015-.015.014-.015.015-.015.015-.014.015-.015.015-.015.014-.015.015-.015.015-.014.015-.015.014-.015.015-.015.015-.015zm-12.753.408a.75.75 0 010 1.062L3.28 17.544a.75.75 0 11-1.06-1.06l1.055-1.057a.75.75 0 011.06 0zm4.233 4.237a.75.75 0 010 1.061l-1.055 1.056a.75.75 0 11-1.06-1.06l1.054-1.057a.75.75 0 011.06 0zm-2.82-1.414a.75.75 0 010 1.06l-2.462 2.465a.75.75 0 11-1.06-1.061l2.462-2.464a.75.75 0 011.06 0zm9.157-10.547a.99.99 0 111.401 1.403.99.99 0 11-1.401-1.403zm2.461-1.061a2.489 2.489 0 00-3.521 0 2.494 2.494 0 000 3.525c.972.973 2.549.973 3.521 0a2.494 2.494 0 000-3.525z" fill="currentColor"/></svg>