<svg width="24" height="24" viewBox="0 0 24 24" fill="none" xmlns="http://www.w3.org/2000/svg" style="display: block"><path fill-rule="evenodd" clip-rule="evenodd" d="M6.75 5a1.75 1.75 0 00-1.604 1.048C5.343 6.017 5.545 6 5.75 6h12.5c.206 0 .407.017.604.048A1.75 1.75 0 0017.25 5H6.75zm0-1.5A3.25 3.25 0 003.5 6.75a3.744 3.744 0 00-1.5 3v7a3.75 3.75 0 003.75 3.75h12.5A3.75 3.75 0 0022 16.75v-7c0-1.227-.59-2.316-1.5-3a3.25 3.25 0 00-3.25-3.25H6.75zm-1 4A2.25 2.25 0 003.5 9.75v7A2.25 2.25 0 005.75 19h12.5a2.25 2.25 0 002.25-2.25v-7a2.25 2.25 0 00-2.25-2.25H5.75zm7.792 5.75l-2.792 1.675v-3.35l2.792 1.675zm-2.399-3.189a1.25 1.25 0 00-1.893 1.072v4.234a1.25 1.25 0 001.893 1.072l3.528-2.117a1.25 1.25 0 000-2.144l-3.528-2.117z" fill="currentColor"/></svg>