<svg width="24" height="24" viewBox="0 0 24 24" fill="none" xmlns="http://www.w3.org/2000/svg" style="display: block"><path d="M23.988 6.627c-.107 2.25-1.739 5.332-4.894 9.244C15.83 19.957 13.07 22 10.81 22c-1.399 0-2.582-1.247-3.55-3.74l-1.936-6.855c-.717-2.493-1.488-3.74-2.313-3.74-.18 0-.807.364-1.883 1.091L0 7.354A303.463 303.463 0 003.496 4.34c1.578-1.315 2.761-2.008 3.55-2.077C8.91 2.09 10.058 3.32 10.488 5.95c.466 2.84.789 4.606.968 5.298.538 2.354 1.13 3.532 1.775 3.532.502 0 1.255-.762 2.26-2.286 1.003-1.523 1.541-2.683 1.613-3.48.143-1.315-.395-1.973-1.614-1.973a4.79 4.79 0 00-1.775.364C14.9 3.7 17.157 1.9 20.492 2.004c2.474.07 3.64 1.61 3.496 4.623z" fill="currentColor"/></svg>