<svg width="24" height="24" viewBox="0 0 24 24" fill="none" xmlns="http://www.w3.org/2000/svg" style="display: block"><path fill-rule="evenodd" clip-rule="evenodd" d="M17.708 4.232a.75.75 0 011.06-.024c4.294 4.1 4.326 11.006-.003 15.088a.75.75 0 01-1.03-1.092c3.695-3.484 3.679-9.396-.003-12.912a.75.75 0 01-.024-1.06zM14.8 7.65a.75.75 0 011.05.15C16.644 8.86 17 10.34 17 11.75c0 1.41-.356 2.891-1.15 3.95a.75.75 0 11-1.2-.9c.54-.72.85-1.849.85-3.05 0-1.201-.31-2.33-.85-3.05a.75.75 0 01.15-1.05zm-4.21-1.957a.25.25 0 01.41.192v11.73a.25.25 0 01-.41.192l-4.355-3.629A.747.747 0 005.75 14h-2a.25.25 0 01-.25-.25v-4a.25.25 0 01.25-.25h2a.75.75 0 00.48-.174l4.36-3.633zm-.96 13.266L5.478 15.5H3.75A1.75 1.75 0 012 13.75v-4C2 8.784 2.784 8 3.75 8h1.728L9.63 4.54l.48.577-.48-.576c1.14-.95 2.87-.14 2.87 1.344v11.73c0 1.484-1.73 2.294-2.87 1.344z" fill="currentColor"/></svg>