<svg width="24" height="24" viewBox="0 0 24 24" fill="none" xmlns="http://www.w3.org/2000/svg" style="display: block"><path fill-rule="evenodd" clip-rule="evenodd" d="M9.297 2a.75.75 0 01.75.75v2.182a.75.75 0 11-1.5 0V2.75a.75.75 0 01.75-.75zM5.198 4.138a.75.75 0 10-1.06 1.06L5.68 6.741a.75.75 0 101.06-1.06L5.198 4.138zm7.02 7.115l-.965.966 8.084 8.084a.683.683 0 10.966-.966l-8.085-8.084zm-4.074-.022a2.183 2.183 0 113.087-3.087l10.133 10.133a2.183 2.183 0 11-3.088 3.087L8.144 11.23zM2 9.298a.75.75 0 01.75-.75h2.182a.75.75 0 110 1.5H2.75a.75.75 0 01-.75-.75zm12.457-4.1a.75.75 0 00-1.06-1.06L11.854 5.68a.75.75 0 001.06 1.06l1.543-1.543zm-7.716 6.655a.75.75 0 010 1.061l-1.543 1.543a.75.75 0 01-1.06-1.06l1.543-1.543a.75.75 0 011.06 0z" fill="currentColor"/></svg>