<svg width="24" height="24" viewBox="0 0 24 24" fill="none" xmlns="http://www.w3.org/2000/svg" style="display: block"><path fill-rule="evenodd" clip-rule="evenodd" d="M19.045 4.907A9.846 9.846 0 0012.035 2c-5.463 0-9.91 4.446-9.912 9.91a9.91 9.91 0 001.322 4.955L2.04 22l5.254-1.379a9.915 9.915 0 004.736 1.207h.004c5.462 0 9.909-4.446 9.911-9.91a9.853 9.853 0 00-2.9-7.011zm-7.01 15.248h-.004a8.22 8.22 0 01-4.193-1.149l-.3-.179-3.118.818.832-3.04-.196-.31a8.223 8.223 0 01-1.26-4.384c.003-4.542 3.698-8.237 8.242-8.237a8.184 8.184 0 015.823 2.415 8.192 8.192 0 012.41 5.828c-.002 4.542-3.697 8.238-8.237 8.238zm4.518-6.17c-.248-.125-1.465-.723-1.692-.806-.227-.083-.391-.124-.557.124-.165.247-.64.804-.785.97-.144.166-.289.186-.536.062-.248-.124-1.046-.385-1.992-1.229-.736-.657-1.233-1.467-1.378-1.715-.144-.249-.015-.382.11-.506.111-.11.247-.29.37-.434.124-.145.165-.247.248-.413.083-.165.042-.31-.021-.434-.062-.124-.558-1.343-.764-1.839-.2-.48-.404-.416-.556-.423-.158-.006-.316-.01-.474-.009a.912.912 0 00-.661.31c-.228.248-.867.846-.867 2.065 0 1.219.888 2.397 1.011 2.563.124.165 1.747 2.666 4.23 3.739.592.255 1.054.407 1.413.522.593.189 1.133.161 1.56.098.476-.07 1.465-.598 1.671-1.177.207-.578.207-1.074.145-1.178-.062-.103-.229-.166-.475-.29z" fill="currentColor"/></svg>