<svg width="24" height="24" viewBox="0 0 24 24" fill="none" xmlns="http://www.w3.org/2000/svg" style="display: block"><path fill-rule="evenodd" clip-rule="evenodd" d="M21.377 3.537c1.032.295 1.846 1.167 2.122 2.273C24 7.815 24 12 24 12s0 4.183-.502 6.189c-.276 1.106-1.089 1.977-2.122 2.273C19.506 21 12 21 12 21s-7.505 0-9.377-.537C1.591 20.166.777 19.295.501 18.19 0 16.183 0 11.999 0 11.999S0 7.815.501 5.81c.276-1.106 1.09-1.978 2.122-2.273C4.495 2.999 12 2.999 12 2.999s7.505 0 9.377.538zM9.75 8.477v7.827l6-3.913-6-3.913z" fill="currentColor"/></svg>